<mxfile host="Electron" modified="2024-05-24T06:02:04.277Z" agent="Mozilla/5.0 (Windows NT 10.0; Win64; x64) AppleWebKit/537.36 (KHTML, like Gecko) draw.io/24.0.4 Chrome/120.0.6099.109 Electron/28.1.0 Safari/537.36" etag="eOdI39Fr7LNsul5_-XoJ" version="24.0.4" type="device">
  <diagram name="ページ1" id="8zd_Wl-jjQvv5dCTw0JJ">
    <mxGraphModel dx="901" dy="751" grid="1" gridSize="10" guides="1" tooltips="1" connect="1" arrows="1" fold="1" page="1" pageScale="1" pageWidth="827" pageHeight="1169" math="0" shadow="0">
      <root>
        <mxCell id="0" />
        <mxCell id="1" parent="0" />
        <mxCell id="3lJlArqiqxlQ9nQsiEaR-1" value="Heapメモリの対応" style="text;html=1;align=center;verticalAlign=middle;whiteSpace=wrap;rounded=0;fontStyle=1;fontSize=14;" vertex="1" parent="1">
          <mxGeometry x="40" y="40" width="130" height="30" as="geometry" />
        </mxCell>
        <mxCell id="3lJlArqiqxlQ9nQsiEaR-2" value="起動時のログは、居室で取得したログの通り" style="text;html=1;align=left;verticalAlign=middle;whiteSpace=wrap;rounded=0;" vertex="1" parent="1">
          <mxGeometry x="40" y="100" width="270" height="30" as="geometry" />
        </mxCell>
        <mxCell id="3lJlArqiqxlQ9nQsiEaR-3" value="初期通信結果応答JSONをPublihs完了後、パースに使用していたメモリ解放後のPSRAM,HEAPの容量を下記コードにて測定" style="text;html=1;align=left;verticalAlign=middle;whiteSpace=wrap;rounded=0;" vertex="1" parent="1">
          <mxGeometry x="40" y="150" width="670" height="30" as="geometry" />
        </mxCell>
        <mxCell id="3lJlArqiqxlQ9nQsiEaR-7" value="#include &quot;esp_psram.h&quot;&#xa;  :&#xa;   :&#xa;size_t psram_size = esp_psram_get_size();&#xa;ESP_LOGI(TAG, &quot;PSRAM size: %d bytes&quot;, psram_size);&#xa;ESP_LOGI(TAG, &quot;MALLOC_CAP_SPIRAM: %d bytes&quot;, heap_caps_get_free_size(MALLOC_CAP_SPIRAM));&#xa;ESP_LOGI(TAG, &quot;Free heap size: %&quot;PRIu32, esp_get_free_heap_size());" style="text;align=left;verticalAlign=middle;whiteSpace=wrap;rounded=0;" vertex="1" parent="1">
          <mxGeometry x="40" y="200" width="810" height="110" as="geometry" />
        </mxCell>
        <mxCell id="3lJlArqiqxlQ9nQsiEaR-8" value="&lt;div&gt;I (37674) MQTT_EXAMPLE: PSRAM size: 8388608 bytes&lt;/div&gt;&lt;div&gt;I (37674) MQTT_EXAMPLE: MALLOC_CAP_SPIRAM: 4167180 bytes&lt;/div&gt;&lt;div&gt;I (37684) MQTT_EXAMPLE: EVENT_HANDLER:5&lt;/div&gt;&lt;div&gt;I (37684) MQTT_EXAMPLE: MQTT_EVENT_PubLISHED, msg_id=3&lt;/div&gt;" style="text;html=1;align=left;verticalAlign=middle;whiteSpace=wrap;rounded=0;" vertex="1" parent="1">
          <mxGeometry x="40" y="360" width="500" height="60" as="geometry" />
        </mxCell>
        <mxCell id="3lJlArqiqxlQ9nQsiEaR-9" value="ログの結果は下記の通り、" style="text;html=1;align=left;verticalAlign=middle;whiteSpace=wrap;rounded=0;" vertex="1" parent="1">
          <mxGeometry x="40" y="330" width="240" height="30" as="geometry" />
        </mxCell>
        <mxCell id="3lJlArqiqxlQ9nQsiEaR-10" value="PSRAMの領域が８MBあるのに4Mしか割り当てられないのでは、下記理由から&lt;div&gt;&lt;br&gt;&lt;/div&gt;&lt;div style=&quot;&quot;&gt;&lt;span style=&quot;font-family: Meiryo;&quot;&gt;On ESP32 only external SPI RAM under 4 MiB in size can be allocated this way.&lt;/span&gt;&lt;br style=&quot;font-family: Meiryo;&quot;&gt;&lt;span style=&quot;font-family: Meiryo;&quot;&gt;To use the region above the 4 MiB limit, you can use the himem API.&lt;/span&gt;&lt;br&gt;&lt;/div&gt;" style="text;html=1;align=left;verticalAlign=middle;whiteSpace=wrap;rounded=0;" vertex="1" parent="1">
          <mxGeometry x="40" y="450" width="700" height="80" as="geometry" />
        </mxCell>
        <mxCell id="3lJlArqiqxlQ9nQsiEaR-11" value="" style="shape=image;aspect=fixed;image=data:image/png,iVBORw0KGgoAAAANSUhEUgAAAiQAAAPBCAYAAADODbH1AAAAAXNSR0IArs4c6QAAAARnQU1BAACxjwv8YQUAAAAJcEhZcwAADsMAAA7DAcdvqGQAAPrOSURBVHhe7P19lFvVmeePfk0g4MiQMgyC4DJjGSPDjRqsNIvuHyIX0GI1092IuZbdnm4yBRasG9es+aOLCK8VApVMVjnLk6YU3NPrhnIPadmunpBmYrknZcj86LQM82uZhJ6JuDeVMJG5UV26zMJixlSMK7zb93n22Uc6ei2VXbak8vfDEtbZ2i/P3ufUeb772ftIS66++uqTIIQQQgjpIOfZfwkhhBBCOgYFCSGEEEI6DgUJIYQQQjoOBQkhhBBCOg4FCSGEEEI6DgUJIYQQQjoOBQkhhBBCOs5pfw9JIpVBLGAPPMzmUxgYyTkHiRQytZmKE4gn0+ZtZHgcybDPvK8wi3xqAG4VjWjcdhET8SScml0SSGViqM5ayde4fTUxDmtiHW6ZZnlc26rGoQFuPXPlI4QQQhYzCxMhmc0jFY8j7nm5zlUdbibmF3Hh/XxC5EAtKhAqeVJ5IJwcx3DEftyMmrYnigHEMimRIJbIMMZFjPjF4bt5nHz28zLV7cclQyCWQapckZcIokEREbOzCESH5ag5vmC0xedOPYQQQsi5zhleskkgbqIItZGONJLNQg+W3MgY8rM+hOMNFUFT0kkVOwFErZJJxMPwFSfqog/pZG0UpYZ00oiWQKhB+5Eogr4ismMFzPqCiDZTHMUiir4wmnYhEUfYNyvCxh4TQggh5yhnZQ+Jv3+uMEcjcpgu2bfzooCZWgfv728ZxZgvkWhQRM4k0rkRZIs+BJspEv8MZlTUNIyiRDAcDWA2nxWLCSGEkHObMyxI0pgUh+wLJ5ssfbQign4/MDszX3cdRJ8PKE07EZG0YwCS8zagWfs26jPpxFe0fl84XlkiqiGbyTeOopgoyywKWcoRQgghZGEEiTr8TAaZ8quy9yOddPZr6H4Mb/pcJFJJhHVZZF4bPSMYHo8hMJtHxl2PSSfNfhAxwNg23qYBkeHBxu0nQgigCKtHVJGYJaJGKzsGG0WpXXpylpKyLTftEkIIIecKZ2hTa/WeERUl8XjK2ROSFGEy3mgJQzejVkRNzK91zrHPQ6kSQyJiShOID4ygys+rKBG7UvlZE61pLIyq2x/EmJSpbz8RCgC6XGOPpXITBWq418RiojSBUNVG22hgFvmyaiKEEELObc7KHhKHHEYGVJhMmI2eyTpRUvOUS62oaEatGGqxWTY3MmDyTGjEou4Jnkr7jnAZrBctRkjIvzba4r7Mo8eBaPPoTzojYqyy0dbsQZktIMvoCCGEEGI4i4LEJY1kqsm+irNEOulEa5ptRlXhYkTLYLVoMkKiVjiZlz7Z02Jzq0irbEFFju41sXtQsm0KLkIIIeQcoAOCpDcwjw/7whgshz3sd4ZULde42M27Lb5zJDeSdfaapELVe1wIIYQQcqYFSQKpuqWZCIYHz96GzkSqfr9I0w2rVaSR8S7dmKdiVI80VhLO0zytoj5OfYFAALOFLKMjhBBCiIeFESR1T9nIy33Mtu6zJIKFVMu9HguL3UjrsSEZLLS1Ybb85WzJFEb1qRh4nq6pxewTkbwtvsgtly1gVuqY35NDhBBCyOLntH/LhhBCCCHkdOEeEkIIIYR0HAoSQgghhHQcChJCCCGEdBwKEkIIIYR0HAoSQgghhHQcChJCCCGEdBwKEkIIIYR0HAoSQsic9PX14brrrsPKlSttCiGELCxd/8Vo559/PpYvX44LL7wQ5503t346ceIEPvjgAxw9ehQfffSRTSWEnArhcBj33nsvjh8/jmKxaH764KqrrsLTTz+NF154weYihJDTp+sFyRVXXGHEyHx5//33ceTIEXtUQ2QY40n9KniH4kQcZ+2b7KuIYHg8jumBxl9jHxkeRzLsw2w+hYEz+nXz+ptD/cgMnLlfII4MpxDNJlv8fpHYkIkhYI/cPidSGcTcRMwinxowdehvFPVnnPfdyymMayKF8f5M3fl2rwWXumvWXNNBFOz4ODhjigbXt6lPf0KhhW0bN27EunXr8O1vfxtvvPGGTYWZIDz44IPm72t8fNymEkLI6dH1SzYXXHCBfTc/mpfTH/fTG3cc8bjz6owYmYsE4uY3d+JnWIx0B4mU4zjdc1Lps4oQm54qIJhMycicm6gIccYhD3+sehwi0aAOVf1vKc3Owh+qHTH7y9UtuPHGG3HDDTfgq1/9apUYUd5++22Mjo7i4osvxk033WRTCSHk9Oh6QdLOMk0jmpcLoq/RvVhmmCnPzwLrDNL5fUCNYsjNX2au7o/zjdt85peEEzIzdX+4z/1BQcWTP5NxnYdT17DUncl8F7u+m0TYF0BM8niLOvliCNgfJjSfNazP2jDsfFZdh6IzZFvG/Oqy1lvJp30cH37UiUyYttxfRnbyVbWlM/DUsJOudelMfljGzK2/3LinzXJ9cxFBv9++bUUui4I43bnx2t+oT5VzqOPasB/e/mq691erG1wLio5nJb3NcdVUT7lUyCa2woyDH/3lplVglJAdyKIYCJXrNZSyyCJafR4ScQQLeRTtYSNisRjS6bRZAnUZGhoyEUuXp556yuQjhJCFoOsFyby4Zzu+9+SQPWhGGsmJkvkFYK8zaY2IhtCknb1PoBQetDd4H8JRYMykp5D3xxxnr87MTPidGW0q70es7LADIonGJP1ebL5XyswWTb7qKE0OIwMTKM7mTYQkWWhVn9jQ59hWXYc6vxAmbZl4tg+Dw8DImMyuo+pcnQjM2Mg3kJQ+OW25yyGD2imnXGoGUbetgMzCNd2G+X3hPlu/9t11ejK+bpsa0Wjx68cVpL9qV0yccrlfDRBHGsYMCvawGYmU/UVpY4fbJ2+a9xw264fg9lc+myiFYbqi57Z8LcSR7bP1iEhxfkXaSR9od1ylvsFwqXxuJ8uLVi2IROUaKiDrBpH0uDQpI5/GZDGAqoCIvx+FSbney+dBrgu5ZrMj0/a4nqVLl5plGd0z4uXZZ5/FzMyMPYLZq6V5li1bZlMIIeTUWUSC5B5svzeA4g932OMWpJPWmSSrZqrNEdFQ9vZ60/ehT3yVWU4Yc9fgc8jK9N0v01YTPs9nJKdDbkRmruIYHD9XFGfgepL2aF2f2JCpUiIO6qRs9MXMvmMB+NTo3AjGCkGZtUcxU7bdSwKhgIgcEWymnO61cdsqZqv2bMyWbdK+l8w7pTzj95adC7FrQM5JaiYqZb2RFY8tKsrm3I+h9teOcW1aGpk87Dls3g9vf9OTjnPWc+ELxBx75BWTsdJ6EiG59rKtbGs8rg/UnFu3nUYEVLBpWdU1nnFQm0qTTg1aPlC7RJPOiNCykZOyeGnOZZdd1nD/1UMPPVQVIVFUkKxevdoeEULIqdNzgmToyf1oFAS5Z/u9CBS/i0d+YBPaIJ2UWekEPNGGRYaNsJgZub7a3izjRG3K5eYUAR40UtCXtWUnWi4LNCI3MuBEVgbdJRLPHpJ4o82/jZdBziS64bY8NvJqfw9S/bj+0n7SDs4ekhTysNEaQwLxsK8iVnQHcO2yjRFafkRF5SXiQRQaCVgP+kRNu1GP/v5+vPPOO/aIEEJOnZ4TJL+aOY6Va2sUydCT+KLMgL87HzXSAH8wap2gc5Ov4AmDR4YRlbacCakPwag7ldcyQCGbQy5b0N2FZacQGY4iUJpu36nXcEr15aZR8nkdl0WXCHRpocrpeylgZjZgnNepEOn3Y3bGLqokQu0sQJwmurzlOnkVLM6yRbX9tWnOuXLNnA+56RJ8nnPhYiITZimsGY3H1dRXvu50yOYaMWc5T1S0Y4OOcXGiInLkpUt6de2MZFEKDiLq9yz1NEGXZfR7R3y+1htfdeP45z//eUxPN1/+IYSQduk5QfKDl4o4vnItypJE943cuRw/++4jaE+OeDdd6owSznJMbgTZkrOJNJMJYSbv3T0p8/yQzW8erXRn6rMo9Q3ausx6ghPi12UR3edh2zB7CxpOo52Za/2m1hrars9LGknzNIa127QRwfBgGCVdWrD9HTSOSxy26bsulTgOrxTW5SynXPt7bazjc8uGzMhVYzaR1tbnjXLIS8e44XJSe6STXvud5Z/qNM+5mi/ppLOHx7XVjcpIuu4zca4fd8zaGNeacqG2Ykq6D0o0yfgwHtWlIrtc42IErEfkOKSRkWRz7m1KK55//nnzaK+XJ554omopRx8Lzmaz+PDDD20KIYScOl3/PSRin33ncg+2f++L6Pvx3fg3O7zv7cceXn/9dfvudFBn2fi7QnrjuzC6C91fEp8e6NJHrYmLPqX2zW9+E7/4xS+wZ88efPzxx/YTJzIyMDCAK6+80uTxfkYIIadKD25q/QEe+fE/YeXa7UaMBIp/2VCMkO4k2Feyy12km9HHfb/yla+YJ2n+4i/+wkRD9DtHvvCFL+A73/kOPvnJT2L79u0UI4SQBaMHIyTKEJ7cfyeW/+wv8cct9o0sTISEkHMb3U9y11134ZprrsHU1BReeumlukeCCSHkdOlRQdIeFCSEEEJIb9D1SzYaMj4VTrUcIYQQQs4+XS9I9Hcz3nvvvaqvsG6F5tP8Wo4QQgghvUHXL9kQQgghZPHTg0/ZEEIIIWSxQUFCCCGEkI5DQUIIIYSQjkNBQgghhJCOQ0FCCCGEkI5DQUIIIYSQjkNBQgghhJCOQ0FCCCGEkI5DQUIIIYSQjkNBQgghhJCOQ0FCCCGEkI7D37LpZSLDGE+G4ZO3s/kUBqbjyMT8yKcGMJJzshBCCCG9wIIIksjwOJJhdYsVjIM0XjGBVCaGgJNcoTiBeDJtDyRXKoOYP4/UwAia+VKTp66i2ZYO2CnTLI9rW+s6pIcYHk8i7Jsr39nEsSlYcMdZSKQoSAghhPQkp71kow4/GS5hIh5H3H2l8ijZz11UoJQ/j0+gGIghk0rYT+fBrIgWT1vSFMLJcQxH7OdVJBASMTI760M43qotH4LRhhU4RKIIVuutzmNsmkUh61Ee6aSMCcUIIYSQ3uP0BElkGFETfUiiEusQciNItvSKaSQnikAg2kRItE9uZAx5ERwNBUUihMBsAWNZbSsk8qQxxWIRvnC86eeJeBi+WRE29pgQQgghC8sCbGr1oS9o386HwswZd/CJUACzhSxy6YyIlgBCTRSHf2YGRQQQbaSOXNGVLdiEudBloAwy5VdN9Eb3fcz5uabpkown3/gw3Gy6RJYxe0d8CCedz02wSZdsMqkaYVVjj9ST0PJ1+QghhJDOcXqCJJdFQVRFINZsyaQFwT5xpyVMn/byQhB9PqBUW5EVEs6SRg5ZMTQQrTj1arLI5GfhC0brPo9Eg/DNFqS8TWiFERMx+L3LUxOVgo6QCKKQmmvJSYXGIDBm80mmWV8YgzZTbmTASTN7X5w8nu04HuweGd2vY9uLZ/sQq9nvQwghhHSa04yQ5DAykDJLJs5Mvc1ZtzruWACz+Uz1Us8pkEiJw53NI1NTUVlIWJ2SE0Ux6wui2VaR3EgWRXH61VtNEoiL8y5mm2+0rRDB8GAYPnH+5U2mSnrE7ulw6prNj1Xt8VBxMVGs3+NSlS83Al11aiSYWhEZjpqxSXnVSjop7dn3hBBCSJewAEs2Kkp09j1hlj1iuizQYLOqL5ysLBskwyhNxKsdd7uIaEi69cgrNClt1z2ZE0E0KM5fl2tsihPNabV5NY1Js9WkYrvr0GvFTmOcSE1xsklm3c+Cmk2olsKMhpm8e1zq85k8vj5ppV2cMUBpuk5MmboIIYSQLmIBBIlLGkl3eaHBEzTVT9k0W2JoA89TNmZfbKxBVCYRh65KVImgjD62q2nNN6+mM2q7u9G2gahpRaQffhESMy2XdhovUeWma59JWjhmWxtECCGEdAULKEgsuREMGKXQ/KmWhSKd1OWiAGI14kc3s3qFS/ll9l0039zqRlHM8okRNUVkTyWK0xQ/+hsEaCL9fvuOEEIIOTdZeEFyVslhZMyJyFQ0iX73iOiRRpENdxNuc0WCEfuIcEqf0JnPHpe5loTSkyg2eSIp6Kz1nPZ+mmpy0MBLo30npj1CCCGkizg9QaKbU+v2iySQWqANq21hN3yWl25a7NVQJ61P27SM3thHhAPlJ3TaxREzukxUNSSJYbsElDZP8tQ+kaRP3sQCRUyc8hpWc8wSlOfpHMVpzx4QQgghXcLpR0h0v4hnk2kmEwNOdcPqKZJO2g214ymkoiY8Un66phbzNI3kbfidIwYrWorZ+X/jqX5TaioPf8wzHrG+8r4R87juRKn83SH6SgYLSMVrvlhuodDlM7FHGiy3N4gxpEQYEUIIId0Ef1zvHMT89pAKoRa/G0QIIYScTXp8DwmZP80fByaEEEI6BQXJYqbBHp9ESh9/PjN7VgghhJBThUs2ixr71fH2yKCPQ3OphhBCSJdBQUIIIYSQjsMlG0IIIYR0HAoSQgghhHQcChJCCCGEdBwKErIo6evrw3XXXYeVK1faFEIIId0MN7WSRUU4HMa9996L48ePo1gsIhAI4KqrrsLTTz+NF154weYihBDSbXS5IGnw2KpQnIjj7H2NhmtDERM1X/GeSGUqvwtjH6eFfgtquPLjda6t+u2o8emBOrur6sAs8qmB6q+sT6TgfBu/p239fpFkEIXavIKpDxOItzFAidQ4+jP1dZg2ozNtPx6sbUZnUmf15wIasXHjRqxbtw7f/va38cYbb9hUYPny5XjwwQdx5MgRjI+P21RCCCHdRJcv2aSRjMcRl9dEUZ218/5sfqdXZDhqfpsnXvt7M+K0jeO39sU9zltFiJM+AdT8mF49lX6Z37kZHK76dd6E/urwrL/ut3dKs2jwy8LOLx2fNvqbPPP4rpJ08uz+dlEjbrzxRtxwww346le/WiVGlLfffhujo6O4+OKLcdNNN9lUQggh3UQP7iHRiIX9ZV+DPbbfSqqzdeeH5LxCQPPY9PFqh19GowJuHrd+SdNoR0B/LK+mXKTfb9+1Io3Jon3bDulJFH19CNpDtTvkz2NsrKDqo9ruQhaFYNwzDlY85fMicRoRwfC42z/P2EQr/S5/qauMZcpk0DIyFp6xGW+griLDKVufk394eNzmbyTGJE/KM5beb5Nt1M4cbbvEYjGk02mcOHHCpgBDQ0O44oor7BHw1FNPmXyEEEK6jx4UJPoz/n6EXOeZCMGfzzjRi0AMocnaaIM6yRAm3UhGtq/q5/gN6hTNsoiTJyX1x9RJppPml3FNxKMmYpAbGUPer7907BVHNUi90UCp/Gu/cyJ9CRQnK5EY7ZsIj1xOxIfIFG9AxN8HZAveyEkC8WABmaw9rEG/Mj5YSDljEHeXaXwI9006aforxdFGYi2AWMjmiU+gFB6cI+ITEEvHnPx6DuJNR6cGEY2ec2AiLnpeym3Hke1r3PbSpUvNsozuGfHy7LPPYmZmxh4BH3zwgcmzbNkym0IIIaRb6MmnbHLZAvxWkSRCfhSy1uMXJyrLOW60IRJF0CdO1c6yM7EAfH2VGIQSicqxK2qE3EgWRX9/A+fsJYeRAXXkM4jWzN5NREXbMvs8apZ66hBRkLT51fl61qMqfcuJ+KhfolE7S27kxBUv5pNadCmniGzdssqsdNu2p6Kn5Lytxvu7Nxrx8aFm+GrwtKPnwHnXBlq3nCdPJErPi09EphshiQUat33ZZZeZ/SG1PPTQQ1UREkUFyerVq+0RIYSQbqE3H/tV5+kPiZvVJY0CXD3SFN1wamfZ5rWQm1ByIxiIp1AIVmbvlT0kDTaM1uHuIZlAMRCtRABMdKUiVnTpyFe7bKNOvBRGPBGBrtbUC47eQveixMeAQemvK/Bm825Ux3k1OnX6RE27UY/+/n6888479ogQQki30JuCxEQM/AilaqICARUpDrqfwix/5KZR8qnTth80QCMuCFf2Y5iyZ/3n+dNIpgoI2k2tTtSm2hlPGPHh5HZJZ3SpZRDBkmeppw4n+lC7MbY9ApXlMSOSipg8XT3nryw/JeJhVJ5JElTgpfLQUEhuugSf57w0Q5dl9HtHfL6qmuq44IIL8PnPfx7T09M2hRBCSLfQo4LEERH+QE1UoAiEbHg/GSwgZabT6ujFabvLKPKq+UV+4wTHdN9IXdnm6GO8bn2ZjO7PGGsjGjIHakchKPY+CtUj5aUoS3qyKJqrxngpky1JXnfppQnppO7/SFp753ryx4sZVKdcW0tQc5HDiBjsRn5CM+4mXM/GY21H+2P28FTOS6v9Os8//7x5tNfLE088UbWUo48FZ7NZfPjhhzaFEEJIt9C7X4ymT19491zoBsj4NAYWcjnmnEc3BMcxPXC6IuTMc9555+Gb3/wmfvGLX2DPnj34+OOP7SdOZGRgYABXXnmlyeP9jBBCSHfQgxESO5PWJzIoPohFH/f9yle+Yp6k+Yu/+AsTDdHvHPnCF76A73znO/jkJz+J7du3U4wQQkiXwq+OJ4sO3U9y11134ZprrsHU1BReeumlukeCCSGEdBcUJIQQQgjpOD27qZUQQgghiwcKEkIIIYR0HAoSQgghhHQcChJCCCGEdBwKEkIIIYR0HAoSQgghhHQcChJCCCGEdBwKEkIIIYR0HAoSQgghhHQcChJCCCGEdBwKEkIIIYR0HAoSQgghhHQcChJCCCGEdJyeEiTnnUf9RM4MvLYIIaSzLLn66qtP2vddy+/8zu/gD/7gD7B06VKsWbPGphKycBQKBbz33nvYv38//vt//+82lRBCyNmi6wWJipF77rkHL7zwAn75y1/aVEIWnrVr1+L222/H3/7t3+If//EfbSohhJCzQdfHqTUyQjFCzgZ6jem19od/+Ic2hRBCyNmiqwWJruvrMg3FCDlb6LX2qU99intKCCHkLNPVd90TJ05wzwg56+g1p9ceIYSQswengYQQQgjpOBQkhBBCCOk4FCSEEEII6TgUJIQQQgjpOItEkKzH1h3bsSVsD88oYWzZvlVaJIQQQshCsSgESXjLzcDho1h189yKJLxlO7aeSTUR3oLt825ABNX2LSJ1yOmy5JNX4qIrN9ujChd9Zotc7cvsESGEkG6j67+pNZPJYGhoyB41QiMWd6L0yGtYs2MNXht6HPs0VYTHnaVH8LhzgO13lvDIa2uw47YVphQOv4ihx6ek7P24fqmT9O6ru/HIzrxzUIW2YfO9exiH5Z/XHpF2tN77r4cpbuoDtu64DU4Lh/Gi2rJ+a7nNSv0a0bH5TH0rsMJU8i5e3f0IGppA2uKCS27GhZf/ET6ancR7b+42aSpGzv/UGrz3VgYfHXvJpLVix44diMfj9ogQQsjZoPcjJOGbseroayJC9uG1wyuwplVwYt/j2P3qu6IdhkQ87BOdsgmrpnYbwTM0tBtTqzY1XPapyvfMMVxqxIOIlE2X4GVTdgi7j62Rsvvw+O5XRWOIODHCSITHzcew2+Z5+ZI7JUXFzc04tttJGxJh8/gjL+Lwu69KPoqR0+XDYy/jo+P/H5zvC4kQ+SKWrvi3Roy8/79+0JYYIYQQ0hl6XpCsv/N6cTq3mVmtBiJWtFQk1ay6BJh62VUAebw8BVyySgXIdlPfDrsvpSpf/mVMvatvVuGSpStwm8m3A/dfv8KUrSLsF/FyPe63eW5bcSn8YSmHKZSbJQvOe0fG8eE7/yhC5Fp84qJVeP9/P4cPf/1/2U8JIYR0Iz0uSNZjzaUaWbDRhqHdePXSNZLqcKnfhjtEUZigRg1Tx+Sj8r6TMG4WQXFMREl+5yO2PidiUZVPIzKmsikce1eXZdy2h5zlIS/5Eo6ayIebR+uTciJm2tjuQk6D90vP4IOjz+O90vfx4cwBm0oIIaRb+cSnP/3pf2ffdyX/6l/9K/zX//pf7VEN62OIffh/4a//x5s24U2cWBPD7910FH+9cxafG/iX2PQv/gX+xRUX4F0RD39/8H/izRNrEPuXA4j91lLs+g85rNl4PwZikudfrMMHB7fiPzTwXW/+j0sqda39AKWPgKN/vxd/ffS3cP+XpS5N/xe/haX/9SD+55snsCb2L6VOPf4OvnNJFF8e3CSfS57b/jmO/P1+7D+6Bhvvt+VM2l/jxOcG8C833YZ/fuTvUe4OOS0+fu9XOPGB7viZH3qu/uZv/sYeEUIIORssgk2thCws3NRKCCFnn0XyPSSEEEII6WUoSAghhBDScShICCGEENJxKEgIIYQQ0nG6WpCcd955KBQK9oiQs4Nec3rtEUIIOXt09V33xIkTeO+997B27VqbQsiZ5frrr8e7775rrj1CCCFnj66fBj777LO44447cN1119kUQs4MKkZuv/12c80RQgg5u3T995Aov/u7v4vf//3fx9KlS7FmzRqbSsjCocs0Go374Q9/iJ/85Cc2lRBCyNmiJwQJIYQQQhY33LlHCCGEkI5DQUIIIYSQjkNBQgghhJCOQ0FCCCGEkI5DQUIIIYSQjkNBQgghhJCOQ0FCFpy+vj7zRXYrV660KYQQQkhr+D0kZMEIh8O49957cfz4cRSLRQQCAVx11VV4+umn8cILL9hchBBCSD0UJGRB2LhxI9atW4dvf/vbeOONN2wqsHz5cjz44IM4cuQIxsfHbSohhBBSTU8s2SRSGWQy9jU+jIhNryeC4fEUEvaoisgwxt069JWqzaVlMxgfrq7dtF2XVzD1jaMmexMSSDWqYy4SqTp7OkOLcRVuvPFG3HDDDfjqV79aJUaUt99+G6Ojo7j44otx00032VRCCCGkmu4XJOKUY5hAPB53XgMjyNmP5k3RrSeFvD+GKo0QiSKIWSAcr3G8s5j1h+qccSQahM++P9eJxWJIp9NVv5A7NDSEK664wh4BTz31lMlHCCGENKLrBUmk32/f1eJENJyIh87e9TiJsC+AmKS1DkjkkC3Mwt9fiT6owChlB5AtBhCqKltCNgtEqyIVCcSDBeSL9rAWEVFzRWLcz70RkMjweMN0xfmsPkrhLWOaMlGVRM3YuCSQsnm9kaa6OgzevHH02dRa9AcPdVlG94x40V/MnZmZsUfABx98YPIsW7bMphBCCCEVul6Q5EbGTDSj1hknUoPAmI2apGYQTQUxMpBCfraICUlLpm3GhkQg+gOFrBtr0eMSJqVMerKIQJUi8aO/MImSJ3ISGY4C2RFM2+MqdCknBmODsa3GkEQqiWAhZSM1E1LvoLPsI0IiKSInZcsNjHjiQPpZX1bSk6iqTdoa9JRxm/KFxT47Nqm8HzGjMlQIhTBp88azfRjUhqXuQYw5afEUZqLOOCdSMfjz1s6xGfibhIMuu+wysz+kloceeqgqQqKoIFm9erU9IoQQQir0wB6SnAgNcYoqOmS27kQOEggFfAgn7Qw+GYbP31+e8TcloMJGy6iYGUDZ5+tyTWnScfbpSRQDtUs0aWTEsTs6pSJeGqGRFuQz1cKhjNpdFC3jNqz1An1SJBEKoCgip245KjiITHQGqUYKK5dFAWEka6Iws/mxct9y2QJmdWy0jzZ6ZMYgFoBPGtZ2feGkHReNMIkAi9TYqe3MOm9r0Sdq2o169Pf345133rFHhBBCSIWe2NRqyI1gQGbwBXHQzmqGEwlxZvbyamdvid1DkhIREI5XnHgiLoKmLFZiCMh/1cs2jmP3R4cRScQRLDQTHAuPBiZmfX0QzdIAK9YmQ8b2utWhWmbz5WiKeVmRU5zwpMU9Qq0NdFlGv3fE52u9o+aCCy7A5z//eUxPN4wrEUIIOcfpHUFSRQEzs4GafR3tkxsZwATcTa1ONKBK3IhiMeLD5LaIIMqWghiM+j1LPfWocKnfGOuSxmTRa3cCooUwI0XMUlFtm8JsYQwDE0Cs1dNF6STiE8XynhhfMFrOq2JLDEYuN42SLwyPDjMUZmYbtOuMb1mUmeiKfd+A559/3jza6+WJJ56oWsrRx4Kz2Sw+/PBDm0IIIYRU6P5NrZ4Nl7qkEBQHPZLTyIDuv3CXGtylHN2s6m9jU6v6cOPlMfxoCIGiXa5xMUshQURrFEA6I8qhlG0dQRDhMqb7NlybawzRdit262YTG5EQUTFRCiNpy1VtalXBke2Tz2oeM/Y+yixVuUsss6U+DNp0fULJ2Y+SRlKFVszml5eaZsSZp11ns6uM75gn72AfSk2WbJTnnnvOfCtrIpHAJz7xCZN26NAhvP/++yYy8sADD5gvSdu7d6/5jBBCCKmFX4y22NCnbPoz1ZtizwIqPDZt2oRIJGIiIVNTU1i7di3uuusuHDx4EDt37sTJk7zUCCGENIaCZLHRIUHiovtJVIRcc801RpS89NJLdY8EE0IIIbVQkBBCCCGk4/ToplZCCCGELCYoSAghhBDScShICCGEENJxKEgIIYQQ0nEoSAghhBDScShICCGEENJxKEgIIYQQ0nEoSAghhBDScShICCGEENJxKEgIIYQQ0nEoSAghhBDScShICCGEENJxKEgIIYQQ0nEoSAghhBDScXpKkJx3HvVTL8PzRwghpBlLrr766pP2fdfyO7/zO/iDP/gDLF26FGvWrLGppNcoFAp47733sH//fvz3//7fbSohhBDSA4JExcg999yDF154Ab/85S9tKulV1q5di9tvvx1/+7d/i3/8x3+0qYQQQs51uj6GrpERipHFg55HPZ9/+Id/aFMIIYSQLhckuudAl2koRhYXej4/9alPcU8JIYSQMl3tEU6cOME9I4sUPa96fgkhhBCFU1RCCCGEdBwKEkIIIYR0HAoSQgghhHQcChJCCCGEdJzeFyTrt2LHjh3mtXW9TUMYW7Y7aTt2bIWbvH6rHFcyWZy8TvJ6bK35fP3W7dgStgfzIbwF2+vamoNTKbOQyFhuP6XOEkIIIadHjwsSERM3Ay8ODWFo6EXgNis+1t+JVVO7JW0Iu1+9FDeXney7ePfSNWWBYtC8kk7a57xPfgYXXbnZHlW46DNb5EOfPSKEEELaZ3Et2bx7DFPyz/o1l2Lq5bxJyu98GUdX3SzSRTmKl1+GR6BoXmBKC82FRi9sJEZf9ZGE9djqfr59i23PUlXWE3HxptdFZurT6qJBJqKypRINKudvESEyaR4bvHW2+YT1Jy5ahfN9nxVRcr9NccTI+Z9ag/OX3WBTCCGEkPbpcUGSx85HXsMa41BvxrFndkrKHOx7rSJQxKGvOfYjiEapsOK2soPW120rbHp+Jx6xkZjDh1/EIzu9LakAkPZ36+fyesRrh3y2aRWm3M92T2HVJhUsImDuvwQvmzrl9fg+m98RDmteq05TVGi9auspf7RiFfCMk/YibjNCJbxlEy552da7+xjWqPoQ4XHzMSdqNDT0Mi65U2WK2HCbG2EawmtwO9uaD4+9JK8fiygJiRD5Ipau+LdGjLxXegYfyWeEEELIfOltQWIiDGvwmnGozwCb2tnvsQ8/mloF9cfr71yFYzaSUkbEhuO0ndeLh226Zf1Waa9GKACrcAmmUFuVQ81n+Zfl6BKsCvtx6eHXxJoaRBCpcKhrQtj3uAiJ+0UoeSMwh1+Gq432vXYYl/rDWHXJUqnGiqr7r8eKS1Yh7L8US6+/3wqt27DiUj/CNTZo+XZ5/629+PCdfxQhcq2JmLz/v5/DR3JMCCGEnAq9v2RTdqh5lI6aN5g6JjLgZuuy16/BpVMvV0VOdBkHN2/Hzag483YIb9mONa89Xi8iRGIcE+HhNllNzWfhm+XoGKbyJRxdUbOfRRFB9Aw2Ndlcug+Pq1BS7eUuz6iwcN5JV1fgaCkv/X9XqqmIKo205GVw3n3VjZDIS6M4NTZo+fnwfukZfPD2j0Sc/Gd8OHPAphJCCCHzp7cFSX4nnjl2c2V5xQqM/M5nMLXKRgNuPoZn6lTHPrx2dCmOvtYgDNGM9Vtx//WeyEPV/o48dj4zhVUavdDPqvaQ1HymyzRmSUfEhe7D1bSa+vI7H8HLl4j9NXtRyntA7l+FqR+5tq/CJlvHbXjRRFa0/8dutnnlZare97hTp01zBM8+/OjVS8s2rEH7ERKXD47+n/jwWNWiFyGEEDJvllx99dUn7fuuJJPJmBk9aYAuWd1ZwiON1ne6HBVA8XjcHhFCCDnXWVxP2RBCCCGkJ6Eg6WX0yZ8ejI4QQgghtVCQEEIIIaTjUJAQQgghpON0tSA577zzUCgU7BFZTOh51fNLCCGEKF3tEU6cOIH33nsPa9eutSlkMXD99dfj3XffNeeXEEIIUbp+ivrss8/ijjvuwHXXXWdTSC+jYuT2228355UQQghx6frvIVF+93d/F7//+7+PpUuXYs2aNn8BjnQdukyjEa8f/vCH+MlPfmJTCSGEkB4RJIQQQghZ3HBXISGEEEI6DgUJIYQQQjoOBQkhhBBCOg4FCSGEEEI6DgUJIYQQQjoOBQkhhBBCOg4FCSEdpK+vz3zp38qVK20KIYScm3T995Ccf/75WL58OS688MK2fvtEv478gw8+wNGjR/HRRx/ZVEK6i3A4jHvvvRfHjx9HsVhEIBDAVVddhaeffhovvPCCzUUIIecOXR8hueyyy8w3tLb7Q2ya76KLLjLlmpFIjWM4Yg8aEsHweAaphPs+BfNWSKQyGG9VODKMlPncW8epkkAqk0HGvtx21QY3LZOp9KVZv5rlL5NISXqljwbpx3ijvIKpb86Oie3jwzIK7TPn2J4GkeHxeZ+LUynTDhs3bsSGDRvwxBNP4Otf/zr27Nlj/v3yl7+Mm266CQMDAzYnIYScO3S9ILngggvsu/lxquUcchgZiCOZtoce0sk4BkZy9qgVzetol0QqBkzEEY87r0q7s8inbHqqgGCyRkzU4ck/UUJ4sFooJEIBzM76Ea0RA6VZIBitFQgJSPYzQvtj27vceOONuOGGG/DVr34Vb7zxhk11ePvttzE6OoqLL77YCBNCCDmX6HpBcqo/Ud9eOSf6MSwz4fpogzp5/TyJsC+AmHyus+XIsOQv56lEHhrN7J06nJl2JUIhL3fabSITzcpH0O+3b1uRy6IgwqFt0pMo+voQtIdGYPjzGBsrqPqojmgUpO5gvErsRIajQD4vEqcBJqri9jFkEwXppzfSUI7kSPr48LATBZIMlbFtfl6q25B6G0ZhPJEl+fwBqScZ9iEQ0zJqiDfy5D3n8l5s0PSxsZoy5ciXQzl6ovbIm8q14LG1AbFYDOl0uuqXjoeGhnDFFVfYI+Cpp54y+Qgh5Fyi6wXJvLhnO7735JA9aJeAOOexSvQg7nW/GuVIIT9bxIR8Xhvt0Bm9E71I1TluL7mRgXI+U5dWpI4sNGnT48j2DdY4Mml7LA9/2Yk2IRFHGDMQOdEeiRACxUmUuyLHfhEeORU2MhLegIi/D8gWvJGTBOLBAjJZe1iFiIjBMEpuRGdSR3ZufOE+TGr+ulBSo/PSXhtVkaWBEfyVjH8qP4uippl20kjqZ/rSCFP5nPsQ7nPOyeBgbZkWBGIITdr6GkSgXHTpUfdD6Z4RL/rLxzMzM/YIZg+U5lm2bJlNIYSQxc8iEiT3YPu9ARR/uMMet0sRWXeZQKMHzrv2KM/WNYriR3+LmbGSSA0CY0kjBiLRIHziyJxZdQaxgA99lbCFQ24EA+LkUjPRmpm3OM6knZGr7xWn23qhw5NfRZDHwSZCfhSyWjon4qN+iSY3kkXJjZy44sV8UkMkKgIij4xbdZtjOZvPVMRRFQ3OS5ttpCeLohFaRyrKUatkGD5/vxUQs8iXK58HxYmKWK2LQFXQfU1HjhyxRxUeeuihqgiJooJk9erV9ogQQhY/PSdIhp7cj0ZBkHu23ysz/+/ikR/YhDNOAqlkH7J2pj0xl/dNpBCdGYN3i8RsPuXMqu2r2UTcRFh0Jl+eeXv2hMQdgdMaN/8EioFoxVGLoIqKEHLFii5R+GqXbaT2yVIY8UQEulpTFgndTDopfR0DBqVfjZZ05Fwk+7J2/GRMbPKZRp+oaTfq0d/fj3feecceEULI4qfnBMmvZo5j5doaRTL0JL4YKOK7Z0+NiDPvh3/WXSqZa6OniJfoDMY8zjw3XYIv3HyZ58yQRtIjbDRKI0rFOmbnNWHEh5PbJZ3Jwx8dRLDkWeqpJTeNks+z5KNLQ/atEgjZSo0Ict7OmznaqMYut6E+WhHp92N2xi5ytayjGn9ZrCUQF/FWJhAqn0fdY1O1JOZBl2X0e0d8Pk/ZBuiG7M9//vOYnp62KYQQsvjpOUHyg5eKOL5yLcqSRPeN3LkcP/vuIzgzckSXMvzlTa1lciPIivNOatg/E9IVhqbonoaAz81rZ+0yi0/lnXpNWu1jt+L69LFh5zN5JYMojM21NNMGYvdYISjC5FGoHnGWayqY5Q5XPLiYvkrelssZInZ0/0R5acgzJOkM8n67PDUo9ZxySKJFGx4qG0yTCBacJaFctlDej2OWocLJlnUo3jK153sm79nWKxWETHoGyWABqRZ7Tp5//nk8+OCD9shBH//1LuXoY8HZbBYffvihTSGEkMVP138xmthn37ncg+3f+yL6fnw3/s0O73v7sYfXX3/dviOLEn1KqWZPzFlH9xHFpzHQpg369Nc3v/lN/OIXvzDfP/Lxxx/bT5zIiH4HyZVXXmnyeD8jhJDFTg8KEmHoSexfO4OfLf8tBIp/iT9uslRDQbLY0KiRbiC2h7N5pObc0HuGmacgUVR4bNq0CZFIxERCpqamsHbtWtx11104ePAgdu7ciZMnu/rPkhBCFpzeFCQYwpP778TynzUXIwoFCelmdD+JipBrrrnGLNm88sor+B//43/YTwkh5NyiRwVJe1CQEEIIIb1B129q1S+JOhVOtRwhhBBCzj5dL0j09z3ee++9qq/aboXm0/xajhBCCCG9Qdcv2RBCCCFk8dNz30NCCCGEkMUHBQkhhBBCOg4FCSGEEEI6DgUJIYQQQjoOBQkhhBBCOg4FCSGEEEI6DgUJIYQQQjoOBQkhhBBCOg4FCekq9AfnrrvuOqxcudKmEEIIORfgN7WSriAcDuPee+/F8ePHUSwWEQgEcNVVV+Hpp5/GCy+8YHMRQghZrPSEIEmkMogF7MFsHqmBEWB4HMmwzyYCxYk4kmkgIunx6QHz3ktVHZhFPjWAkZw9VBIpZGLARDyJctHIMMaTQRRq8wqmPkwgXttQz5NAarwfGRlj7XIiNY7+TH3/20bGdbw/g4EWFWzcuBHr1q3Dt7/9bbzxxhs2FVi+fDkefPBB89P84+PjNpUQQshipPuXbMShGccfjzsv6ygVFSFO+gQQG8dwxH7QEBUhNv9ECeHBYXizJ0IBzM76Ea2ppDQLBKO1FScg2ckCcOONN+KGG27AV7/61SoxougPJI6OjuLiiy/GTTfdZFMJIYQsRrpekET6/fZdK9KYLNq37ZCeRNHXh6A9NALDn8fYWEHVR5VQQSGLQjAuOSpEhqNAPi8Spx6N0GQyGeeV8pTSCExt+hxp42VxlEDKzTfuCClvO95mDBqVGB62ZRyhphEdk78qc229ehxDwBdG0pYzRCs2eYtX9dXaVZueCtnEJsRiMaTT6apfcx4aGsIVV1xhj4CnnnrK5COEELJ46XpBkhsZQ94fE+eWqhIFVUSGEQ2UMN3uskIihEBxsrI0I8d+ER65nIgPkSnegIi/D8gWvJGTBOLBAjJZe1hDbmSgHM2ZQNRx6rr0Y5aDbITGWVtqnBaaLJfP9g1aMWEyOukaIZJ8g2JDyuZrtGrkC/dhUj9PSY+SGYQmNW9KxtLaJPJheDzk5NFXtg+DwwUk4xMo6rJY3F2m8SHcZ21K5eGPWuEhoifpsWGiFJby8onaFi6V+zWJ5qGkpUuXmmUZ3TPi5dlnn8XMzIw9Aj744AOTZ9myZTaFEELIYqMHnrLJYWRAneEMojLjrkQNgEDMzs7NPg/P3o+GiGMVx2zyq9P3ePFEyI9CVr1vTsRH/RJNbiSLkhs5ccWL+aQRlahDLOBDX1B8dFT+l89U2dcszRdQ8VVdPj1ZlL56IhZGOIWRrAuNVJh1685NoyQCI+McSP9K+kYbQ9AXQMy2lYkF4NPG6pgVM62V2q4trktcxWxl+SydyUONre2X2t6Myy67zOwPqeWhhx6qipAoKkhWr15tjwghhCw2euex39wIBmSGXwg6UQOlsoeknU2X7h6SCRQDbpRAkBl9VBy/K1Z0o6yvdtlG3OtkKYx4IgJdrck2bUyjDlHM2L0qqXyjRZ3WzOZTtk/Oy+imdFLejwGDYqNZGrEibTJkbG6hS1pjIiGVts72Bl19oqbdqEd/fz/eeecde0QIIWSx0TuCZMFII6nLGHZTqzOjrxYBuvwQr3HyGgHwRwcRLHmWeuoIos/nLh1FEA06TwHlNOwSrt6H0jBtugRfTVoFFSEp5OHZ+6JCZaIIf3+1fGoLjZz46vvZLiZq4y7fCIl4GJgpOH3wCDqNpDRDl2X0e0d8vsrTUo244IIL8PnPfx7T09M2hRBCyGKj+ze1ejdOZpIIFsZO/RFUl9wIxgpBESaPimjQfavVFRpnG6rx1FImW5K87vJFQ9LI5P12GWQQffqIjqLtldPlpSGNRmkiMFLeNLtvprwh1fQ/g7TuNXHzxFpFbFqhwkxElrvsJS8n0uJEg6o2tTZCbFXhlrRl9Uko82hvTXoIrXcbP//88+bRXi9PPPFE1VKOPhaczWbx4Ycf2hRCCCGLDX4xGuko5513Hr75zW/iF7/4Bfbs2YOPP/7YfuJERgYGBnDllVeaPN7PCCGELC4oSEjHUeGxadMmRCIREwmZmprC2rVrcdddd+HgwYPYuXMnTp7kZUoIIYsZChLSNeh+EhUh11xzjRElL730Ut0jwYQQQhYnFCSEEEII6Tjn4FM2hBBCCOk2KEgIIYQQ0nEoSAghhBDScShICCGEENJxKEgIIYQQ0nEoSAghhBDScShICCGEENJxKEgIIYQQ0nEoSAghhBDScShICCGEENJxKEgIIYQQ0nEoSAghhBDScShICCGEENJxekqQnHce9RMhhJxteO8lZ4MlV1999Un7vmv5nd/5HfzBH/wBli5dijVr1thUQgghZ4NCoYD33nsPzz77LP7xH//RphKysHS9IFExcs899+CFF17AL3/5S5tKCCHkbLJ27Vrcfvvt+C//5b/g5ZdftqmELBxdH4fTyAjFCCGEdBa9B+u9WO/JS5YssamELBxdLUh03VKXaShGCCGk8+i9WO/J3FNCzgRdfVWdOHGCe0YIIaSL0Huy3psJWWgocwkhhBDScShICCGEENJxKEgIIYQQ0nEoSAghhBDScShICCGEENJxel6QrN+6Azu2rrdHLmFs2b4Ddcke1m/dji1he9Ampq0d7msrqqtfj607auoMb8H22jRl/Vbs2L5FrJybsp1aV6sOLSCNx0bHtLbPp0d4y3Zsn+9JWAg8Y3kq14EzFlJuvdTT5nlccOQaMmN3Fq8LQgg5kyyCCMm7ePfSNdWOcv2dWCXpC89hvDg0hCF57X71Utzs8WThLTfLx0ex6uZq93RUzKhOE2d286V496g9POuIcOqUE60hv/MRPLIzb496CL2+pp7Bzn078czUKtxJPUB6hPM++RlcdOVmeVf9xWYXfeaL8uEye0RIZ1gEguQo9FuMveJg/RpgasoeCN7IRn0wxRPFMO9t3jZmnUdLrjMN4+ZVR/Ha46/h6PV3VoujqZcxtcqTFr4Zl4hxRy+1xx40YuDa2TJy4LXTG4Gps1+jNm4+jW7ozP42rFh6Pe635Zq2efNWm94oguBEoCr1VqN1lofPM4OvnAdbpmqWv6VcZ8UOTzvm89q29POt2Grr1WbKbZQNqB2D5lRFwMrlvel2zPx6Wp1zn395Cpeuqa+1/prz9KVWELrjIHijRuVxnOd1SUgzPnHRKpzv+7+JAEnIkSNKll41iPM/dS3OX3aDOSakUyyOPST7RAisutm5ycvNe82xH8H7Swv7HneiGkO7X612HqvkRr8JeGboEezMi8PYdAlediMgx9Y0cMQrcJt1DJvwDB7fZ5NFZKw6+hr2yX+vHV6Bav80hZenLi2nrb/zEry2s+Qc1KARA2Pn0IuV/tShdq7C1G63T1NYtUkdnDje+yv2Dxnj9uFxe6wRnTXr89j5yIs4/O6r2G363KzNpbj+ktdq6q8Q3rIJl7xs29l9DGvqB6oB67HmUm1Xyz0ultWwYpWeCMcOK+q0nVVTu512XrsE1y91slazAnjNKScnB2vM+914tRw1qx0Dk1iPiILb8KLTlrxelCP1/SoKbj5mbbDXyc1ialmL5ksiLv1156rumjPXiK3/kZ2oigtNHQMukUqllpsvOYqjlzjnYZW8f21fO9clIe3x4bGX5PVjESDXiyj5f2Lpin+LTyy9Bu+V/jM+OnbQ5iKkMyySTa378CMbOl9/5yocs7NXl3IU4P7rsbTsPMTp3iY3+rJzWIVLllYEx/3Xr3B8RBV2yUacDDyCYf2dUu+K20y528Q/rqjxevmdJoSDsIilm6HCpQm6t8S0r1GMS8SiRoidKnLKDvFlOZK8Mm2/9HBt3ZVZ+f3izS/1N/BkDdt8F6/+yNbk1u8cGVZdshQrxPmbcjKmK+oHqgEiDF6+BPdLmapIjMvhl41AUgF3zK62rbqkEonAvh/h1YarcIfFaeu/Ws59n0fp6KVwutvGGAhh/6U47BQ27HvtsMlbZcM8qLvm8jvxzLGbTVpdkEPHWAWURs9ETL8mo31zWAScuVbauS4JaZ/338rgw3deNlERjZi8/7+fw0dyTEinWSSCxHX6MpuF69gsIgLuxDPl2WrFp4nT3f0a1pTD+I5Dc/eI6KscAalFnMvLR6+3ewe8M399eWfnLo5g2iQz3SnX0dexHlvX2KiEzPYP29R6xE7jsOyhzrwlZUpn6iuq2w1vudNGHTQ60MibN2tzacXpufXbQ2VKFMPhF93+yqvBQJUdv3j0cmBj3+Mm/zPYVO+UG6CBg/L+G7WjYYSkNXOPgUO+dLRKSK5fs8IsyVXZ0C5Nrjk3GvXamtplsLwTRRNTVUzve+0oLrlzDRx1NY/rkpA2eb/0n/HB2z8ScfKf8eHMAZtKSGdZNIJEnf5rR5fiqGeWaxBHjevvd2arm2qnljJr330MN5tZax47n3Hem7xz7DfY97guEYhj+eIaXDr1sicE7zgX754WRfcaiLupRDbqEMdzqRNl2bHjZlza1HeqnVNYdb+1U5dpTJRH+mJWLWy6eHyn685xpes6Tu4ekmZtvotLb7b13L8KU89ULzHkdz6DY+7n8qoVFyoOj7pjrht4TWplL8f9q6bQVJd5qKpHxJxuEJ4vjcegASKWdJnGtCUvXaZRx699nVplbTBj5o2+CBqZOlqqGp+G15xnH8httaJZMHtRVlziLAXtew1YcSmOGRU4v+uSkHb54Oj/iQ+PMTJCuoclV1999Un7vivJZDJmVkjOcXRp6eZj2F27/6IT6CZU/4/ME0K6NHNn6RFGLcg5wxNPPIGNGzfi5Mmudh2kB1lEERKy6Cjvb5HXbZfi1ZpITcfY9yNMrdpkvodkU5vRHkIIIa1hhIQQQkjbMEJCzhSMkBBCCCGk43S1IDnvvPNQKBTsESGEkE6j92S9NxOy0HT1VXXixAm89957WLt2rU0hhBDSKa6//npzT9Z7MyELTdfL3GeffRZ33HEHrrvuOptCCCHkbKNi5Pbbb8dzzz3H/SPkjND1m1qV3/3d38Xv//7vY+nSpVizZo1NJYQQcjbQZRqNjPzwhz/ET37yE5tKyMLSE4KEEEIIIYsb7kwihBBCSMehICGEEEJIx6EgIYQQQkjHoSAhhBBCSMehICGEEEJIx6EgIYQQQkjHoSAhhBBCSMfp+u8hOf/887F8+XJceOGFbf1+gn6l8QcffICjR4/io48+sqmEkIWmr68PV155JWZnZ/FP//RPNpUQQk6NrhckV1xxhREj8+X999/HkSNH7BEhZKEIh8O49957cfz4cRSLRQQCAVx11VV4+umn8cILL9hchBAyP7p+yeaCCy6w7+ZHq3KJVAaZjPsax3DEfnDOkEBqfBjz7nYihfEzNFhV58TaFhke95ynDFIJJ6+mu++9zHlexf5MJiW99xAZxniTa8DU16AhTW89DhEMj7v2Vo/1nGXFnpT53FtH+1SNjelbTX9Pk40bN2LDhg144okn8PWvfx179uwx/375y1/GTTfdhIGBAZuTEELmR9cLklP9mevW5WaRT8URj8trooTw4Ck4Z7JwiFCIYcI5H/oaGEHOflScsGnxCSA2l3hsfV4ToQBmZ/2I1lRSmgWC0dqKE5DsDUkn4xgYcS1sRA4jA3Ek0/bQw9xlXZrX0Ta5EQzEkzidKrzceOONuOGGG/DVr34Vb7zxhk11ePvttzE6OoqLL77YCBNCCJkvXS9I5sU92/G9J4fsQZukJ1H09SGo78UxemekiZR1gDrTTA2bGauZfTeKLtTk0XrKM/yq/DJjdmfxbvqplLX5nGSNXMjMWtPT6epZvUYFvMemjhgCvjCS5chAA5vk/+X+6ixb64kF4AsnG/e/iW1mDIc1MlGd7iXS77fvWpHGZNG+bQfveTWIwPDnMTZWUPVRbX8hi0IwLjkqRIajQD4vEqeeiPRnrusikdLIRP1Yl8uaPJXxahQ1cerQMtWRInM+TfTDTavkS4Z9CMRsHm2/PODe8+lpr51r2xKLxZCW68v70/NDQ0NmWdXlqaeeMvkIIWS+LCJBcg+23xtA8Yc77HGbJEIIFCfnnkUGxLWNObPviVIYcfc+76WcR2fzGQxirCa/OoUQJs2MX17ZPgy6jqGtsnKjdyMGqTz8sUo43hfuc+pNPIW8P1ROT4T8yGe8vUsjKW0UZ/NIxQcwkmtsU2R4EMFCyknTWXY6ifhEEbN5SfNEMBxa2eZDuG+ykh6td3i5kTGxOVZ2rA0RxxkNlDDdTnBBqT2vcuwX4ZHLifgQmeINiPj7gGzBGzlJIB4sIJO1h61oeV3UjrVNtmi0xBnfVJ0g8pIbGSjny88WMaFhExP9sOXlklHbNV8qP+tElWpCK4lU0nM+J1AKD5aFUXUf1kkfltgPKugvbevmct0z4uXZZ5/FzMyMPYLZUK55li1bZlMIIaQ9ek6QDD25H42CIPdsv1cc0HfxyA9sQkvESSbtjDAkzrKduHgxW3Yo6WZT9XKeAmbEcWRtgXL+SBRBX0D0hm1bIw594gyUdsoij7K2EIeULfrRb53KbD5jnW/OONeQ8W4aFSgga+1uSBObctkCZJAaRjTqaGnbbEUQqRgoOW+rcZYn4qkZRMUGb7TAzPbVrmQQBXGqrc9U8/OqwqxgBkLHp36JJjeSRcmNnLjixXwyB+1cF80oRzmSCPsq57IZidSgCIfKGJQjLN7rqCG6/FS5psRSZPJAuUhVH6bk//X73C+77LKGm8QfeuihqgiJooJk9erV9ogQQtqj5wTJr2aOY+XaGkUy9CS+KDfc77anRgR3r4HMXgPRykzxbGBmy85s1LxOa5NAY1RM+FWRtOtYG9lkZ+CTIXV6LSIXC4lpU6MFldl7ZQ9JfYShnibn1URXKmJFlzV8tcs24qQnTYQjAl2tqTjvM0UCqWQfsnbMJ+bSMokUojNj5THQ5ZnojI14pBovLS0k+kRNu1GP/v5+vPPOO/aIEELao+cEyQ9eKuL4yrUoSxLdN3Lncvzsu4+gXTlSIY1kqoCgZ/NjwAktWCfmvF0wctMo+Zos98yFWWrwlG21hKF5/SGkylGBFsxhky4rTHgiMQ2Zj21nherzGokGIUrFChsrABosu6UzuqQ0iGCpjSW80yXSD//sjIyb0nwDrYOIl+gMxjwiKdjnQ8kOsPbPZ941Q/ffBKqXpMLAjNN4W+iyjH7viM/XuiV9uu3WW2/F4cOHbQohhLRH7+0h+cFLKB5fCSdIovtGfgtv/+iP21yqaYDMyscKQXFg4p3SGbuXQWbSg0BhnhH4uVFHqfsrbKhdXm0tiRhyGBnzlG25hOEs2wRQCcVX40QDnI2WjW3ybqSMufWkJ1FquKl1PrbVU71pU/c6VCIBp0z5vD4K1SO1wkyXV8ri00WXmkqSt2rPzeniHWubpJi2NF37HAJaXGuJlLsx1o6RjH9BxZMd78G+UjlCYqJjml5zYaWTum9Ezp2pQ/f7tBNxqub555/Hgw8+aI8c9PFf71KOPhZ84MABs5eEEELmQ9d/MZrYZ995GHoS+9fO4GfLfwuB4l/ij5uokddff92+O/fQ/QWhydN8bJQQD/oo/Te/+U384he/MN8/8vHHH9tPnMiIfgeJfnOr5vF+Rggh7dCbggRDeHL/nVj+s+ZiRDknBYl9PBfFiTOyP4Wc26jw2LRpEyKRCLLZLKamprB27VrcddddOHjwIHbu3ImTJ7v6lkII6VJ6VJC0x7kcISHkTKL7SVSEXHPNNUaUvPTSS3WPBBNCyHzoekGiIeBPfvKT9qh9dA37zTfftEeEEEII6Wa6flOrfiX1e++9V/XtkK3QfJpfyxFCCCGkN+j6CAkhhBBCFj+999gvIYQQQhYdFCSEEEII6TgUJIQQQgjpOBQkhBBCCOk4FCSEEEII6TgUJIQQQgjpOBQkhBBCCOk4FCSEEEII6TgUJIQQQgjpOBQkhBDSA+gPGl533XVYuXKlTSFkccGvjieEkC4mHA7jT/7kTzA7O2t+UTkQCOCqq67C9773PRw4cMDmIqT36f4ISWQY45lxDEfssYdEKoNMKmGP2sTUl8I8S3WYBFJuP8X+VKPBaAft+/gwHk01Hs+GJFLISJlTbNFDBMPjGbR9utTW+ZxbsXP8VMelDhnvBemzmtUD11rTsXPP2RJ7PAdyzvbo31bL7DK2e2Rs26zyVIg8NirX9xKcwSbOGhs3bsSGDRvw53/+5/j617+OPXv2mH+//OUv43Of+xwGBgawZMli6CkhPbJkU5oFgtHaG2YCoYB9Ox9yIxiIJ5G2h+cSiXgQhbERfCOZRd9gmw43nUR8YAQ5e3jq5DAyEEfyXBz4nsU9Z20GUeVv6z7922LMdUG48cYbccMNN+BrX/saDh8+bFMd9NfMUyJ2ly1bht/+7d+2qYT0Nt2/ZKMRgeg0ZoIhTA9UhERkeBxxFODvm8aAeDk9ToZ9zofFCcQlTSMo0ZkUBkbEnepMPzQp6ZA/ZCBpPh9H/0wJ4bAom9k8UgPTiGdiUJ1TnLDOU8qlkCw7UlMmM4ARyAw+DhT8YWizmj/Tb20wddU6cZ1tmgLSnikgbfVjPBmGD7PIp6ROKdCoHyq+XJud8cgiqZk13dqrlG0WvPXM5nUMgpU6hMhwCtFs0rTpxVvO1Fdw25PynrakVmuzx4aG/a6g0QIxAGmNfnjGrmE5k2caWcQQcyp32gu657F8QpD5v18KfPrTznG5rkZ26TlIOm2iiImGwtQ7pm4fveW0OntNeVF7zblUKnW7fYZ73UgxM8Z9WacPtp8D5WuhUr4g+QYxVm5Ly5njabnWnEGpt6XZuEmW8vibjNLP8X5ksn1I2roanYdyGY2i9M+gFA47YyPX5gaxv/rmIXXaayyR2iN/W285f1tCcWKDXJubkdorY2sm9GrXfWLXLRjeI2O7zOTCxIaHkb7lMeyR6+OQXh8Qm8TGwdq2H5a2TyYwKvWt9tS3LXcStzw2iuiBreZ92b6I1rnEqVMGWe3J9O/Gl6ThJdLvb923Df9wUnNH8NieL+Fzy7RS155H2yzrtcfJ9/AuseH+UexZ+Wu8pfb/+tfA0f8m9u8S+6XM5lHs/a2fY6N77OHRRx/F008/jV/96lc2BfjTP/1T/M3f/A3efPNNc/zJT34SX/nKV0zUpLY8Ib1GT0RI/H1AVhx5tBxWTiAeLMjN1B4KuZEBxONx85pA1CxJpJMTchOLS25xKFFgwnViZXwI94lzkzKpQhDJTAiTWkcqD3+0jQhCIAiMaZsTQCxjnIVpvxRGvGGcPoCgm0ccRmZQi0v5CRFFtkCjfjRGnWRMOuXkNTbH7PKAOI+kjE/K1uMIshD8MwVTUslNN4g6iTMb9JSrHq40kjY9PlEU3zVmHbUdM32p42h32aQ8di3GKxBDaNJtU8ZIozrpDPL+kNNPIRHyI/+UXA/GppSN5jS2KzI8iGBB8pj0RmJE0X5OoKjOOe468qSnnF5Tg/XnxUTebHtyOVSuVYfCjDveEUSD4tX8/eb6ikSDKE2KJQ3K50ayKAWj9jrUciVkVRia0+7krRNGSqNxsx/VoRGwqrFrzqfCfZjcoPWm5BxE8VjTShXnb2uD2iDX5uXRxxBZImO7Qcb2uIztBh3bkzK2W4CdGxxbUzO4Y3Szs9Rirg9JNzadtG1rPmn7cmn7Fs2VxsPGHi1bwLXxzTLF0sJNWCV1SlsbZIBP3r1X/l7/Ehul/MSRdVhviyZGt2DJzo3W7retPfLJnGVVyNyNJfslj9qU+ikuv3sUtjR81v4Niafw08tDku60t1mu31cyuyBqQo4qLF26FMuXLzd7Rrw899xzJjri8sEHH5g8Pp8jZQnpZXrmKZuqm7M610K25uapM9sMMvKKBXzok/uHcS5GKyTRl23kgGRWlXFSc9MluSlnnDy5LAolk9yaYtY4LHE3mJktirNwLEpPVt9EKlTyFGZmpbh1AOlJ+cSlUT8aEImKuMnDmm8cWrboR78MUCIUqNTtoTTtSREPWddF7bfMSZOt9m7oDDw06ThCtcEXkPF17NVZu6+pwTWUx67FeMlMuCyKdIx8fdLnnBGnIUd5IeQvIFvb0SZ25bIiyMLJ9vexGHRpsHLe9JrK5NHwvJg9TU3GwbRt0oLoK02ICAtC9UlQxLarE+vLpzFp85k+lSYlRdKK0rdWe1wajtvp8xv9+zB+U8/BXH8g+rcls359K9fVIc1eN4GXsV21TE7JXqffyTCWiVC7RT5ZItfHtoOVAvq3ucs4bWn70BEnUYgM76kqGzFuvglTUqeJmti/120idaTK9M+L1rQEPhtw7Nlr6vycU6dWOVfZyB0yxq9gn6stctvk7/Fy9JvOWPsl50mx/0DhcoSMItks1+8hZA/WD81ll12GI0cq/XQZGhrClVdeaY8cpqamsHr1antESO/SQ4/96s1ZZ9JOtKPiIBSdEUcxk3JmS6n8rE3vNTrdD2fPQHwyZG7y9Y5b7BvsQ9YbOjGRBMde86qLQi086tz9qkgaClNLI7tsFGIypI5/YTeb6nKKLg+atlJ5ccc1qNjTyI7YjEmRFZMl0ScVQdWsvObTyEo5kqJpSckzBgzKOVq4jbydQpdF7DnSl43S1DrohiRG8aW+A05EIj6BX0mhtsq1RO2xERtrj7Mcs3DkDhRwuSqSzb8F/6EsDjaw+vjx42Z/SDusWLEC77zzjj0ipHfpIUEiN2KZmvqjg3am6EVmnb4SnACADYkbEja8rWGSU3dAAWc6rl4DUbvcfmZo1o8G2GhGeanD2OaU1YhDoMGSk1/DJy4yNffbt3XYMH5VfkGXPKoiTblplHzNlqcWgEBlaSYiKjRQtOfdOvdUyI9CXXhEmMMudegTNpo0N05Eomq5MFyJargE+3zlCJSKh/ozl8N0yY9o1O+ULczItSzK2gqqpuXTkygFxTEGS6pjKqi4EuHSMFTTbNwQsJElm+687SAabZCxfaxlXKMpkX4/fqODqf488VmzN+VU6qmg9qxy7JlvRbkDUtou32jZyGPy9/gWpg/K+1q9oXkvD2FUrt9DjcIjwszMjPnekbmWYi644AJ8/vOfr9v0Skgv0lOCxCxLlOS2UV6ncNEwut+G6MVp6mM5QkLUiN8sw9jP5xerdzB7FmJOWHhQ2m62GrMgNO5HY3IYGdN9I5pXXskgCikrFkRQ6L6MpKnHzqLVsXmcV6RffWGNM9flGFsmI0KuKgql+0vCPgTc9uSVSqSRNHtXvGmSVzdALsTMXcY6ZOs1e2LK0Rdn2SaAyrKP6V84aR9RbmyXRiHc45gpqxGpRkLVicYl7ePmzl4kqduUVYXr7C3xYsSybW+wr1QfIRE02uETt2WG3QhKcTZWhDQvr7YE4C/Y5USx1l3SM+e87m9BaDJuVW1I6+VLuWrszjTSn7fWIblXx/YgRu6TsV2XdJZI5KXXTbtaIDdyAEfcsqElmJK004tl5LDtvv1S55ewd69rz61iTzsWSdmdeVx+916nbHItDj3xsFlmqrfJWbZZJdfgtsZ6xPB3f/d3eOCBB6oe692xY0d5Q6uijwTrd5F8+OGHNoWQ3oVfjHYOUXnKQpyaPmExxybGU0Udf3x6oGZT7MKi+y104+bptXFmx2FhUNGku5/rRVBDVFTqUztncvDJabN5dC9+6+cbnadwmtyBzzvvPPz7f//v8eqrr2J8fBwfffSR/cSJjPzrf/2v8ZnPfAZ/9md/VvUZIb1Kb0VIyGmRzswgKrPgR3Udq8Gm14UiKDP8quWFhUQf85WZawyejZunihMm6lox4kR09AkffaLJJpLeRh/zlev3niX7RYygqRhRTpw4YR79ff/99/Ef/sN/MF+SdtNNN+ELX/gCvvOd7+DCCy80goVihCwWGCEhhJAuR/eT3HXXXbjmmmvMUzUvvfRS3SPBhPQ6FCSEEEII6ThcsiGEEEJIx6EgIYQQQkjHoSAhhBBCSMehICGEEEJIx6EgIYQQQkjHoSAhhBBCSMehICGEEEJIx6EgIYQQQkjHoSAhhBBCSMehICGEEEJIx6EgIYQQQkjHoSAhhBBCSMehICGEEEJIx6EgIYQQQkjHWXL11VeftO+7kosuugiXXnopzj//fJtCCCGENOfDDz/E0aNH8f7779sU0gt0vSD5zGc+g0984hP2iBBCCJmbjz76CG+++aY9Ir1A1wsSsQ8nT3a1iYQQQrqMJUuW4PXXX7dHpBfoGUGiFxchhBAyF67PoCDpLbiplRBCCCEdh4KEEEIIIR2HgoQQQgghHYeChBBCCCEdh4KEEEIIIR2HgoQQQgghHWeRPPa7Hlu3+/GjR3Yib1Owfit23LbCvD384hAe3xfGlu334/qlmvIuXt39CHZq5vAWbL//emjyu6/uxiMm0UXq3XEzjrl5CSGEdD187Lc36fkISXjLduzYcRsc6WFRkXHzMeweGsKQvB7fp4l57HzEOR7aPYVVd643WdffuQpTuzV9N6ZWbcKWsEk2hLeswaXv2gNCCCGEnDF6XpDkdz4iYuJFHLbHSvjmS3D06Crcv2OHiJXtVSLDsOoS4NiUPfByFCU3EiKiZtMlr+Hlo/aYEEIIIWeMRbmHZNUlK3DpsWecaMiLR3G9jYaYZRwVKWteKy/N7Hv8GWCTCpf7ccnLj8MEUxDGlk2X4GUntEIIIYSQM8yiFCRTx97FUTfUse81HL7ULxJD3z/uiJTX1mDH9i2SpntENgHPOEs5r63Zga2iXcJbNnnECSGEEELONItSkORLR7FijRsVWYMVR0uVza6KihT7Fu9O4WX7oQoZ3ch65/VLseI2jZrswG0rluL6+xss+xBCCCFkwVi0T9ms36piQt8dxotDGu3QaIi7+dXzlI3naRy8+yp2e5/UEdZv3Q7/j/iUDSGE9Ap8yqY34a/9EkIIWVRQkPQmi3LJhhBCCCG9BQUJIYQQQjoOBQkhhBBCOg4FCSGEEEI6DgUJIYQQQjpO1wuSDz/80L4jhBBC2oO+o/foekHy9ttv46OPPrJHhBBCSGvUZxw9yh8i6zW6/ntICCGEELL44R4SQgghhHQcChJCCCGEdBwKEkIIIYR0HAoSQgghhHQcChJCCCGEdBwKEkIIIYR0HAoSQgghhKCvrw/XXXcdVq5caVPOLl3/PSTnn38+li9fjgsvvBDnnTe3fjpx4gQ++OAD86U4/EI1QgghpDXr1q3Dvffei9nZWRSLRQQCAVx11VX43ve+hxdeeAEnT54dmdD1guSKK64wYmS+vP/++zhy5Ig9IoQQQkgtGzZsQDgcxpNPPonDhw/bVJhAwAMPPIBSqYS//uu/PiuipOuXbC644AL7bn40KxcZHkcmk6l+jQ8jYj9vjwiGx1NI2KPTITKcwrBpPIFUaiFqtCRSGHcq7jF0bDNYyKGo4NSdyYzbMXdIpGrak7Grvibk3GTkfEeGMa7/SkrtdWTG2vP5wiFtN7g+tX2vzW33oao+Tav0oeHfgdunJfa4DRKpvdV1StnI8J5KmrxStkJN976vzVPVbGIUe40tnlSxb485n1U5DYlRsUMGxZvdIYLH9qiNUu4Bt3/15evRcpW8kcdGTbvtlCwTeQx7jE1uHXukT3r93Fpt52btq4yDJ28VWs9ex5b52qFtjurYzsvwzRgdtbZI26Nyvc+vfDN0TEdNP9qtbrOc1z2141XDqfVxPnjGo4e58cYbccMNN+BrX/talRhR9GdbUqkUli1bhptuuums9LXrBUk7yzSNaFYuNzKAeDyOeCqP2eKE835gBDn7Oek0OYwMxJFM28OFJBFHsJCScz6AEc8JL8zMwt/vcd2hAODrQ9AeI9IP/+wMCrkRDMSTcE0rTsi1o9ePvAa0wprPzyZt98EelpnNI2X7kCoEkVQHaD8yuH1qd3IkQuhu7McGW6f527JlixMb7HhNAHfvaSgiNI8pK3+fl8dGsdlzE0x8NoDfzPoRfeyWKhtLs0AwWp0mufHZQH39hsR6BA99S2aGch38ldu/TgSKN2N98BC+JTPUgZF/kBmoTVYnHV2C/ZK+Qf4QGs5Mc9tw34ZO2d1Zdj28AfdVjRc5Ve6++27s3r0bH3/8sU0B/vRP/xRXXnmlPQK+853v4A//8A/t0Zml6wXJWUFngalhZ/Y8PoaxqlmuO7N00Vl2EmFfADEzi7Op3hlzo5lm1Wy0eobeiKb16czXTTeNN6hX88QC8IWTnrKefM1mwu4YSB6tumxDVf4G9ZxKWZvPpKbE7mGnX5qWEFVuP9KDcv5yxKdRWhUN2lEb3TGpOp9yb8+Kmw5GrZ0R9PuLyOf9CNlMkai49UJWpJLU6xrdkMafV51L9/OaMasaJ/2snD9kE1vTfh+ao3WIb0f1fb7SJ+950pcb2fAS6b+8jZluGpNTc3iTXBaHjvvRf4s9Fjs+638FY2NOP2/xNiL9KgTjVeIl8tgdWPKKTDrscRmNLNy9GsvkOthrIgzSPzPTlRZGRSSVr8Mlchqc6IVzfKucqy/hc8vk737vXqfvtrlbJJ93xq6z87lm8FIKj+2JYfWyMJK2Pjf/5tFKO1rPrR47KhGTZjN0Sd9r88o1dav9XKMKJk3uEfHlraMRbtTGae+BBm140fYqEbHUA24/3CiU0+bwrdXj6dSrebSvq01fR21Zb/uV+ipoROgxqW+JnsvR6r8h7a+W/9LnlmF1bC/2jjr2N6pzs/d8PyDnd8+oHLt/q47Nmu+WmvE4r9YgD5tHd1f+RtSe8xIY/b4zDqkHziv35ZbHdnvscdJPpayTT+zU62m3Y//evd/Fru+q/W4Z/Uz6Wj52WLp0qVmW0T0jXp577jkTHXHRPZmaRyMlZxoKEpeA3LDHdEY3iHHPjVymmvDnM55Zr87gU8jPFjEhMzkzkxcHmQwWyjPNiVIYg3WOMo2k/TyeKiAYr3dcZZrVZ5wqTLumHtN4g3rTScQnijL5Tdnoj4qoECbdfNm+BvYJ7hjoDDaWwSDGyu075raop62yxninrMyA/TFXGPgQ7ps06VWREe1vyEnXV7ZvUASXOBDPGJjIRBVN2tGZvjsmtVEMcX4F2GhCJIpgaRIj0yUE7EUQ7FOfV+/KA9JPc1OYQ2CWo3LymkC0krc8ZjXjNBhGybV/UrKZzHNwin3wkoiHgZm6GIqHT5nz5EYw/NHHxNpqciM7kb88JjdMdfY2sRY5r3cE3sL0wRaiRPpw7ZICsm6exGfhP5TFQe3nySCiHkXil75lCzZyYpITJvKQyZqPq9HIwv5f4bhcBxtMhMErwJzrcMMGuQ4Lj2LLtYfwxAYnqpNM/4P83X8LPz0uf/eSlvQUPDhyAKVr75DbvjYewR3Bt3Bgm4x1peIGHMS2+ybwq+N5pGx97ox/18OVdjQS8A8j95UjTj84eQekm00EhTr4EH6+0UaZ/v7T+OJjESxJjCJ2xSsmEhOPj+Htyz9l8zcmt83b3u2QKlq0F8OS/RvNmMVTP8XlfzgqEmWJiLsvYe2hJ5x0jUj+w0m5NmrrPYhv3Kd9/ZXp68N/JWNw/yi2LPlLbDTlUnj79sdNfY3bF/RvaKfT3x8cWYf1m2Vkv3EfvvXT4/iVRtse/iup8/Emdfqwru/nYqOMv7Ytf2lB7DTH8R8cwY1SmeY6WDMej+p4NDXIqXOj1DH6yzV46Psh/GKTjM/oT/HPbn8UESm4ZLP28T/ij8z5GMXbt/2ZEdOuPXOV/VLwNTxhz/EPjtyIL4pBjmh07P+jjV/A5uePYM0dekVK+i3yt/TWAXwjV7nGlMsuu6zhPsvaCInibnRtLU5PHwoSl2K2HMbXmaLf3sgTIf/cN/JQQIpXln3SmTzQZ1xDFeWZcjIMn7+/7mbu0qw+M8utEkcOc9arDspGdEw+jRQ0sK8yBgXMiODK2gFJT1oF3aqedsoij4xrvAiEbFFmwMbYWelWba+0SBC+QMxpS16xgE+GQWbXRbFBZgYNx69lO83IYboUMCJU2yxNSuH0JIpmLBMIBUqYdk+Gh8qSTfUSUD0ioqr6YJM911zTcVI77NvWnFof4JMZumubyKX7WnbkN+Y8mXuaCoOSSaxBBPt9MiapGdwhM3WNYLm3sIDMWM25TAZxKPVww2UgzWNmf4PiZ+6rLPckPuvHoexBaTuH7KGTqF2iObgtiyPXRh1R4IoXSW/QRAv0OtzlFModkCt5Hb40Kk5pzntwGj8vXSsiSRxV5A4E35qE1DLPtltRiXrcs3qZc/00sknb9jnRBjOG96zGsr5rsTm0GlPZbTJypmM4UJidw7ZK1KNle+LogngF+3TITNXb5G/tcvlb2yzX2xSydaJs7no3y73PF/6SzPK1v0l8btkVrf925W/IbWaX/A016lfzOmfxyj75Oyl7ablvmcrkeNckNIjnfCJ220iFY3erC0Lr3CXlTuLg9FsifPdhl9ZzMItDJafCzaFVWCb2fN+MxcP43MVijxHY7ZX9/x34hvxdaC4xM/MKTn76WtOysf8bcpat/W+tEZEs1Uai1+Ktn+829Xo5fvx421GP/v5+k/9Mb2ylIGmE3mz9IbmNy43cL7O0VvfodtGoR1/WOrCJNp1MG7Rbr2evgHmd6iaNhaqnTZyIRqU9bS6dlPdjwKDcIBZq464KAo0maCTBCRKIsJLbbTTRD39xsk4Eto9GbKKYSTn2p/J1iwgLxin1wXs+ZXAX7HYjQvA+mY0Wrh2UmbBzA6/sIVEB17glZw9JCvmTYcQ3m/mdDOEw7hBHEE46TiEZXgZf7bKNEQXrpIyMd3QJDmxT8XI6vclh231i7+RnxXFknCUV+0kj0j8v4VpRJCoG35pcSDmiUYgofv2EMyNOycy/JXI+nUiI55zOy4m47cnM3La3MD6o/Xqn9Bow0Qx7rfzD6Z1J5dTr1KU1sXuHEwUaNXaf/oBMTTj1Vew5sWBXjMMuTL61BnfcEkE0+BZ+vltqr2lgZmbGfO+Iz+ezKY3RB0RuvfXWuk2vZwIKkobILKzgRygVgn+OdXfFOIJoZcbeKPQd6fdj1k1LhFqG4ZvVZ/YJhOMikyq0VW9uGiWZCbdaJWqL06nHLCl4yoqTiTabtVty0yWZ2VT3t4wuwaQaRKJOoR2DiSZEES0LUL0GdLuCjTacMkH0+dz29ebQ+o/fGWMREeWT3/paqeKM9eFso1GWCZy829nUqjO8JbrEYm7ezmviiIqPapGQ3vcKLo9uMctVOs9cENIPY8PEr3C5bmZprUhQujaO9XLzd/SIOmBdt28tZObmWrl+3ipfP3e0un7s36cuW3ijOodmZrEqJInGEqeO5jbVt9c0r8zcNYpUbi/ymPytadldmCyuQrRqrae9eo2tZimwuYXz5fTqlL/fT+nyorw9eYv5+z3dZQvdgL4qapdgbFq77Jqcwj+/o1J2c3wdlvz6kPNhDbsm38Ka9esRfOvnaKBHDM8//7x5tNfbpz//8z/Hm2++aY+cx4L1u0h0L8mZhoKkCWbZRjyBu/RQjSNYypta00mzB8Ab+q7d25AbyaJkNlRKnpAG11rQrD5xwmN5p11TjzTetF5xTibdLG2kkTR7KWw5ebl7K+fH6dQjTmbMUzYZRCFVs5ejFhmHlLe/ZjNqZfnD1FG31HMK7Rg0miA3e48ANQJQkmq05TxJI1PuwyD69JGQlsgYT5QQTlr7W1wrlT0sbqToTPWhfaof3U0ieGgM25pEQ1qTxsP7T+LuPaOIB5dIlzTiUSH986J1sh7k7+PAkZNyTdhll9PBPFZr+xGzEZeTutxxOe7eW72p1UEjNKtkArPPiKHTbb7CLuzLO23uletn+Vu/semN2IWHv/VTXH635LW2q50Hv6H7eu6WNI0weevYjNE9lY2vDvNpL4dtO/OV9pJrceiJh7Hr5EnRcRM4su4ha4dusNyNfa80qlfH1G/SdVOr7v9QsfmQsVXK6qbNUxAAuQNy/1a7Rh+QOu9vWGd7te5CRu3+vtr9bxy7TzNCcnCb2nMjHjJ1WnvMxtQ22PUw9pcqZe9Z8hw2b8vhRCObdNnmn1+Owr765RqXH/7wh2Y5ZvPmzeZLSJVDhw6Z7/HSyEgikcDq1avNuJ3p5Rql678YTeyz7+bP66+/bt+dAvokh26oPMNLEoSQxYBGRLZgyV/ej20LsMRwVlDRtf4w7t8qEuosOBtylrnlMeweXIL/uHkbcieaX5MqPP7oj/4IkUjEREJ0A+vatWvxe7/3e/jxj3+MnTt3mm9APxtQkNShM/AYAjIvnejQd0oQQnoH9zHT3+S/hfu29dD3Y2wexeiSrdi6S5wV9cgiQh/zTSJ88W/w//7W/RjJnWjr/Op+EhUha9aswdTUlBEjv/rVr+ynZwcKEkIIIYR0nK7fQ3KqG2nOxgYcQgghhCwMXS9I9Bvj3nvvvbbXsDSf5vd+0xwhhBBCupuuX7IhhBBCyOKHj/0SQgghpONQkBBCCCGk41CQEEIIIaTjUJAQQgghpONQkBBCCCGk41CQEEIIIaTjUJAQQgghpONQkBBCCCGk41CQEEIIIaTjUJAQQgghPYr+Su91112HlStX2pTehV8dTwghhPQY4XAYf/Inf4LZ2VkUi0UEAgFcddVV+N73vocXXngBJ0/2nmvv/ghJZBjjmQwy7iuVsB90B5HhcZRNUlsb2hfB8Himkq/rSSA1PixWzw8dCz1H48Oekk3HpBmn1nY1znhnMuPwmnLKJFLVfapD20uJ5e1Sk3/O+muYb/7TRdrbWz4ncn726tiK/ZKeme+5kushZW2PDKcW5vycIpHH9sjf5BIsscfNSWB0j/Rzydw5y2wexR7p3HyKlJGyOt63tllY+7HXe4/UcyNlndKbMSrny/SzpjpTrrYdbXtvCg+Uyy8A7fTHjNetpzZebbJ5dNQzLr3Nhg0bzOvP//zP8fWvfx179uwx/375y1/G5z73Ofzrf/2vZSx7r6e9sWRTnEA8HpdXCnl/rIccu0sOIwNxJNP2cFGSQDxYQErO08BIzqZ1iEQcwUJKrpcBdNqURUE6iQ0DI3IVq4iIAvv1bzGJtKTHbTpZQHY9bMb7H+Yxw52aUAel50VePziJu/fuwWO3WucrM2h/aLO88TqoCO4I+uqc8+ZQAL/5jR93PCZKcaH82Sn0hzTnxhtvxA033ICvfe1rOHz4sE110F+5T6VSWLZsGW666aaeEyXdv2SjM+z4NAasN9dZ+CDGjNPT98mwz6QXJ6zD11lbLGDSZvMpxzk2SRvvn0EpHEbg178Gjv43xF3FYD7LNG/D4v3MiKZMv9gKFPxhmOTZPFL2hp2QiwRJuYnrDDMTg7HG87lLIpWBNbWxrZhFPjWA6bjNp+2WjfLULbj2VtpWNALRj4y2W1WvKSB1wVOH05aaUEFn90mnf4JjI6rSqsbJnr8sYrZfts6gnJPQZNWYZ0InUQysrmnb214RE+oIq2xw0yzaXjIMxxT7mdbtDmpVHeZkQbpf18+q814swj9Tfz0441Wo73uhgQ3mvVI9fiY/Gp0HLeE9n55xq1wgNddPg3Ex53gShWCsfrw841K+1gRvH016NopUNIvkdBx7Jb/j5KTtMSCu6aacRk7EVvOhtLFBLqTRvXLOnRui1nOf5DupERJbRiMk0WwGGBwExu6T8ddbkfRhjxzvdI8VTZNzdUjPldqlY+HNL31epvm03YeRVseXkFl5bLWxdTb/Ldy37R/gJItNq02qnFf5Z/I+PJw+iVse24MvfW6ZyV8U565pTusJ6UYMpoi2+637sO0fNuPxclptfovO+Ff+HIe84y627RIjTmrE4J5628pEHsNo9AC2bgMe3R3HEm+/TfvVbWmkI374fjy8S9LtB5r2peUHsPFh4PHHgZ8viaJ/n6esse/XeCsI7LtvmxULmzG6ZyX+9i+BL34R+Mv73fRqTN12rPQ6+JaWv+VR7Fm/BIeukHsfbFrFGE9/1kt/rqjuz7WP4/t3y3g4A2LL3m/HXRLdtPsfd2zWv5PifuzH7Vgx85bU5VzDxf32PNzyGPZ86XNYZgwsYr+9Ju4fHcWSrVudc2BKCO44uPdWsWf6//Gfcffq87BE2tj4cBon3LH5vthzXsWenNize75lheL+jWLnCdz/+G6s/PX/MvaXSrPwHd6J+7flTJlbHtuNwSX/EZvtsZdHH30UTz/9NH71q1/ZFOBP//RP8Td/8zd48803zfEnP/lJfOUrXzFRk15auumxTa0RROUPqJCVG6DcTFWYuJGTmaiGwOWmGIPccJ2ZgrnBqoNSx2fTsn2D5TCxL9yHSU1P/DdxhCEp7ZAI+Vu0USE3MoBUXm5s4lTKjjUgBo45bU2UwlK3k+yScAx06qwRI0o6aT+T9grBeLm9sq2pAoLJDEKTTp68P2r7o87IU3cqD3+s2t5GlOst15VGMj6BojqcBhGGRCppow9aZkKcqI6nRoDcMtWizRCIWXvlNVFCeHAYkXRG2qse83zm4bq2Eyl1VrZsagbRVEJO6aDHBq+zF3IjGJgoyj1DP5fP9Px7rolU3o9YOcQWQNCc35p+SpnBcKlcZtJKAkXPudOunF/oeGnfZexm1dHbvqsNNo90B9GqdYkG+YX686Cpei5sPXre9WLSqITbv5rrp9m4+MLR8hiW+9/s70Ku+S/ZSJemuyLFIG1/y73e64SQDLI4hHLbcg9MJ91juZavjWOzcz+uQcYjW8K10VscBxeJ4tq3sth2sPYm6pyrDVrfxBGsi282DiwxukXEi21Hro87RiVd+rYn9HNstBGD7Ke/iMduWYIlIlLuvuIVfGuD5h/D25d/yqlaHOaWtYdsup4Tr8NP4+ENE/jVcbkmN4gI+odb8Oieu7FE+mpsSf0Ul989Kn2r75wZd7FN86V+ejnuFtt03Pf8ltrmtPX3rm22TD2rpN87nejHD6Tf66WONma9uQMFzLqd8Pfj0GTJUzaCx8S0A9umUaVsNofgP3QAuVwWBVyLO+R6qGtJHPiXZKyesPb/4Mg6bHksIvkkp977tL9ybTSPhuh5rOnPrq3YMPErHBdxtuE+LXsLHtsTws83bnTG+O8/jS9qG9KEb10ffi5tb0j+lThqH9b1/dwsXZjzcPtj0jPJlNuG+zzRotvniPaU60z9Etc+tBehX2yS8zOKn15+Ox7VokusPX9UbY/W+Sktu1HKjtaU/WdaVkZFy+6OYclzf+T0efSn+Gd/+LhdOnLs12thcPDvcWTNHZBLQdJvQfTat3DgGyLga8Zx6dKlWL58uZkkeXnuuedMdMTlgw8+MHk0UtJL9IYgEYfmrI2qc7KOKhSQP/ikTddZoR/94kwniwHEPOvaEVEwvnJ5jSr40Cd/N8psPmNv2mlk5EYdMn4qgZC/AKNHGrZhCjSnmC07t/Rk9UWjaFog1mJvgzqKBu2Vbc1NoyQOO+McIFso6RvtqPyhu+mCOMVscW57K2PgqaspMjaBIrJlJ6XjhvJ4NkVm/GWRkp5E0dcntmp79WNejbbnQ1gEmDkHGnWQm6sUhCS2tXSn51+Uju2jDksWRanDGRZvXyrUlqk+jxq1qL+WatFIl7E5JtfQnAPU/DxotMLb91anM9dkXGbzY+VrUvPMSj0PNPm7SIRWYSorsz8ne3uUr70aJ6TO19SvEQy5FvVu2wi5Jt66NmpuxpHotXhrcle1ozTIudp20ElO/xxF8yaBzwaWSZf3lsdomfQtIX1bJn3ba/a6SN9WLzN90+UI0zdzk8/hQGFWK5G3B1A4uQ5JFTMtHJchcof09RXsc00U53egeLn0rd7n6bhvyznixgiEy722OTbfY21r7jCnpN9yNrSSXfK3Yxo9BXZl8Mrln5W5ujSlfSj9HNKFqmHeLJOCQwe0LR0b4NoGiqQ8hrbkrn15nPz0tU4+ufe5pjZHz+Mc/VH7fKsRkzEye2PuWY1ldpBmX9knfyeuYJzFK/vkr0bPp57DUqWyzaP1ZZtRrtPeW/fpdXzyoPk7NDXeItd3A3tUUvxGy5rstuwuW/aQlpX3UvbaJXq9aLrUdVCvl3+GFeZvQe3f5eSTszH51hrc4fwRiCj/OXbbIl4uu+wyHDlyxB5VGBoawpVXXmmPHNyNrr1ET+0hkUk/wp6Qg5mpqWI1L0eomAjDGDAoF4678c+ZLVfy1s3gBb1R+9U7JkLi8Cqzv0ZtnBY6w3UMbLAhUJxdsg9Z255MhBc13jH3F7JNnKATSSifA52Z2wjEZEgdztxRoIVDIwFRzKQcWzQ61ggVEdEZe83JRds4VxskUkj2ZW3fJ2Qk5mCe49LO38WpI9fyl/pwwM5UJ1p6UplIvHUtordoBPQtNNQjTdGlEGe2bl5yffxSHJT2rbynwvStwd29TA7b7pM6Jj+L77sbQO0nZwJdpqm1rWlA4RSJ3CFO+NeH7JGiDtbZG7I5HsShv9VB9jQaeQxRFXdfcpxu8nPLsCx4h1zxZ3IkWiDO3Y1YmVfyr9peetAlpeivn3AiZKmf4vhCDK61x0RIrD21Symny67Jt7DmjlvMhOitn++2QqWa48ePtx316O/vN/l7iZ5astFw+QScTa2FmVkEok12+OuNWdWLqNjcdAm+cGXpoykapvSHkBI9MmlvzC3bOC1s2B4aKfAQ6Yd/dgYyORE0OmDetIcJs3qWiGR2Gg2UMG28fMBGIjQ56lmAmC9OBKqyBJFAPAzMOAY3x7McZtovTjrRgPKY2yWyOgqYmfW2V42Kz4k5okBO1KBy/k37pekm4sfBXDPBaPm8a6TMIYg+nzum6jydfRa1BPt8KDmZzM2lca65ifT7MesOroi2ds9b7bhU9UVPmIi/v2ryd5GenMKqqIa+50H52vM4L7mWL/+N51pe1dqxpeVmfK3c6IOlSZkrtnujL+DXen08Zpd7LLnDJXxK+ra5xpnq3/Mq3dxpkp1NnVWkHzZLB5c3Cne46Ewc62BWP/RYHPkdgbcwfbBe7zjj7lS0eX0YSw4dQFrG/VPh9ca2Zk2cLs4ej7dwwEQiKlbltmVRunYLov5DMIEQm64YAfNKtVDS5ZjaFaJdk0V7fXj6pcKn3VPWDhqp8EnbcnHOGbFqgP79veX+/Um/fKdSiReNfnxK7ZF65lvVwSwOndRxtGVv0evlf+Fw3ZKksGsSb61Zj/Uiyn/eKDwizMzMmO8d8fla31UuuOAC3HrrrXWbXrudHttDojfbCSAmM9CsiJNSGEkNoenLRBsq4fRMMoiCrl+kk866uZvedOboLCEEYJ2lpqgAqmujGjPLj8ln7awfCOVQfkb3YlSWBQy6zFJuT5TRvCIkInLGdN+IrV/7n3L2EaQzlfRBuZ3OXa0ID2NH/dKSjn+pvIylmzPaiBpJgyGTX2Zeuj+hPBV3x7yyzFXdtgo3b3tO1Ku8jCGvWFXZBsiYjnnOf3X7TZBrxnveQ+URc5b2nLoG0VdyYx9OPzRdL4Oq8e4rNYiQVOdvhi4vlfvuvRzSk056zfXYbFxmS30mYuikTzj7Qpr9XUj6/tK6ct/be7zYvfbs0onWdXAEB7Qes2wixk/ZrM3QZZtVIkwzIkfadm7S7n0TOLIuWX7sdVwfHd31ML6lezbssoixR5xSbttO5C+/2y7lDGL5W79xqhFRsccu72RiS8SRH6yxIY2fm77swfCtB/GNnXlcfrcN3yfX4tATzmbVWnTct7hLM0v24z4RCCdlfF3bHJsd207TZWKVjL27RJU0ezycjZzVVu3CvsJJHPEsuTjcYvbmOcs1Nkkw4qP26RwZ2wkRKg+V+/Ws069G3nM+iDMurXsIe/fo48G78fC3ZIz/sNKn1AMyRm0OUnqfPT9SdnD5W/jN6dom4+bY832PPee1ac9BbJPr5Z+5ZR9ei9ee2Nrg3Ci7MPnWP8flhX0Nl2tcnn/+eTzwwAPSfsWAHTt2lDe0KrqvRr+LRPeS9BL8YjTSUVSg6YbXhV0uIGUSlSfGuhrdb2IerhlB+eEaQs4pdAPsIJb8x83YljvRVJifd955+Pf//t/j1Vdfxfj4OD766CP7iRMZ0e8g+cxnPoM/+7M/q/qsF+i5CAlZJIij1JmGztgpRs5l9LFdmTkmgzg0phtObTIh5xD6mO/ezMNY+9pf4hu6EbrF38GJEyfMo7/vv/+++WK0P/qjPzLfOfKFL3wBTz31FC666CIjWHpNjCiMkBBCCCE9iO4n+b3f+z2sWbMGU1NT+PGPf1z1/SS9BgUJIYQQQjoOl2wIIYQQ0nEoSAghhBDScShICCGEENJxKEgIIYQQ0nEoSAghhBDScShICCGEENJxKEgIIYQQ0nEoSAghhBDScShICCGEENJxKEgIIYQQ0nEoSAghhBDScShICCGEENJxKEgIIYQQ0nEoSAghhBDScZZcffXVJ+37ruSiiy7CpZdeivPPP9+mEEIIIc358MMPcfToUbz//vs2hfQCXS9IPvOZz+ATn/iEPSKEEELm5qOPPsKbb75pj0gv0PWCROzDyZNdbSIhhJAuY8mSJXj99dftEekFekaQ6MVFCCGEzIXrMyhIegtuaiWEEEJIx6EgIYQQQkjHoSAhhBBCSMehICGEEEJIx6EgIYQQQkjHoSAhhBBCSMfp8cd+w9iy/X5cv1Tfv4tXdz+CnXl9vx5bd9yGFSb5Vex+ZCfy4S3Yfv/1MFkth18cwuP7JPfWHbjNZD6MF4cex9SW7bjfqdTipEtWQgghXQ4f++1NFs/3kKjguLOER4zC2IItUzuNOAmLuLiz9IgRHhVEsGz340ciVETRYBOewSOOkqln/VZs9/+o+eeEEEK6CgqS3mTxLNmsugQ4NuW83+eIkWaEt6zBsWd2Io8wbr7kKI6uuh87duzAju1bJMVLGFvWHMMzFCOEEELIGaX3Bcn6rY6YWPNafRQjvAWbLnm5Ljpy56pjeNlkXYVLVlwq4mQIQ0NDePHo9bhzvcnksP5OrDr2sggXQgghhJxJel+Q7HvciImh19ZURTh0qWbHJuCZajUiImMN8LJGR5QpHHv3KEpWcex77TAu9VdiJE5WyhFCCCHkTLN4lmz2vYbD9q1GTXRfyJBuZrVJLioyXitrlDxKR1dgjY2KrF+zAkdddYL1WIPXuJGVEEIIOQv0uCDRp2l2OEs2O262+0IcYbH0ersvRF9b3XUYERmXHoPdaWLY9/iLwG1OvtvwYmV5R5TLpe6eFEIIIYScUfhrv4QQQhYVfMqmN1k8SzaEEEII6VkoSAghhBDScShICCGEENJxKEgIIYQQ0nEoSAghhBDScbpekHz44Yf2HSGEENIe9B29R9cLkrfffhsfffSRPSKEEEJaoz7j6NGj9oj0Cl3/PSSEEEIIWfxwDwkhhBBCOg4FCSGEEEI6DgUJIYQQQjoOBQkhhBBCOg4FCSGEEEI6DgUJIYQQQjoOBQkhpCvo6+vDddddh5UrV9oUQsi5RNd/D8n555+P5cuX48ILL8R5582tn06cOIEPPvjAfCkOv1CNkO4nHA7j3nvvxfHjx1EsFhEIBHDVVVfh6aefxgsvvGBzEUIWO10fIbnsssuwdOnStsSIovkuuugiU641EQyPZzA+HLHHDolUCgnnHVIp592CEhnG+Jmot4uIDI9jvl2sjPsCk0jVnWMlkao/9wuDXDfjw3J1nTkiwymcEdM7wMaNG7FhwwY88cQT+PrXv449e/aYf7/85S/jpptuwsDAgM1JCFnsdL0gueCCC+y7+TFnuUgUQczK9Cx+Zhwh6WrSyTgGRnL2iHSCG2+8ETfccAO++tWv4o033rCpDvqTEaOjo7j44ouNMCGELH66fslG7LPv5s/rr79u39Wjs/j49AAmQxmEJuNIpp10nakjmUTaREj0rX6g0ZQkwj4nz2w+Jc4MkhbH9IDmdWbc0RlNFyens/L+TGOHpxGS+DSyiCEW0IRZ5FMDMFmlXMZJ9LThtlvERNxpq0xdflMJUpkYnKrzSEklTtWZcnvFovwzOSB91n7FgYIfYW2kOIF4ph/jyTB8Xruq+u/aUVPW5s9Gx5F0B0rrcwdWadH3qnF37W9qg5veyC5tpmKDLgH4Z+rPhUYZotkkRqA2aTfCTj2eMaumdlyziErbfVnn2tE2B/E/UQr/do3tc40dkN9fQPCzjWxoPBZl271GmrGt1FGciCPTb8ehqk8N7Kkru0HK7pmjrH7kvd5npO9hBH79a+Dof8MGGRRzY5HP9oYmsdE99vDYY4/hP/2n/2TOkcvQ0JBZqjly5Ig5/uQnP4lHH30U/+7f/TucPMlfuSBkMbO4NrXesx3fe3LIHrQigmiwhElxJOnJIgKh1jGSRCqJYCGFeDwurwm58Q5iOJLDdCkAp2gCIfEavr6gkz/kRyHr9RY1BGJGBJn6JkoID2qIX5xPDOIgnHS90UeGBz3tOs62Qn1+x2GEMGnT4tk+DGpsX5xCzC+OxaSPYcZvPYohgCDGTP4JEQqZQWBM86ldcWdcEimT6NSZmkG0vB5TKevmz40MIJUX0SMOsUqMuDTsu5c0kvqZaUscddkG7zlwRUwDu8S5DoZL5XGZtO68JQE5b7aeiVIYtkkPjcYVGBnLwx91zl08WMDYyDfE9gkU1Ym3stHgjp3k+6UeNrKh8Vg0pVzHBBDLiECy59XTp6b2eMvevddTdp2UXWKyJFJfqv47WKd/B+YjfCrch8kNkp54CvnLQ9jsFJG/hcvxSmZXnRjRZVjdG+YVI8qzzz6LmZkZewSzH0zz+Hzea5YQshhZRILkHmy/N4DiD3fY4xbock1p0nHw6UkUAyFxKc1QsVFE1jh8JY1MHlDtoWLG3y935Ei/THMnkPdrPRH0+0uYbqFHNHJQ9tXavq9PnFMak8UAYp79B7lsAQgnm+zHqM9v+uWTtEwGGX3FAkYkJUQtFbPuLDeHbGHWvHOo9K0wI0LCzad2mVTtv0/MsHVq9MTfb9v0jEs5/xw07Hs1Gm2obqv2HCiN7XogKrXlM865FfQczUkxW442NMzfZFxFfWGsEEQyE8XMmDu+XtocO6WJDfVj0YJyHQXMzFbqr9TXwh5v2d94y07J/1VOSNlVU8hus0bq38Erzt+B8hsdc6M65Po6dDlCRpFImcsPIXuwPrKhe7zcKIgXjZBcccUV9shBBcnq1avtESFksdJzgmToyf1oFAS5Z/u9CBS/i0d+YBNakIjLjVhm6uambELibqRjnohDLQWjSET7MJNNi6MH+hMesTNPdF9DfAwYFLvMhktxeAMyG9VlpUymftNnXX7FzM51BmtfjaIU80ZD+546Gy5pLBCJFJJ9WdvWxBwip94uDTacEU55XE9j7OY1Fu1y5s9lLnsIl4c2Y0kihMsPZdFAj5gnapYtW2aPWtPf32/yE0IWNz0nSH41cxwr19YokqEn8UWZQX+3HTViZok1N+WUG3pvhBOJiJYfa0hA9AxmRHyY2aTM73VSrhGR3DQQlIOSrgXVoDPdsmjwRGQiw1ERUh4BoyJE7ClPPQUVHhNFPzQYU4c3vxhQ8tUvOWjko7IspctV8wl/62zb2//TpFXfhUi/H7PO4MpQh+yCS+05UBrblZsuwSci0U3V6NBp02RcpQMYDBaQ0uWUuqUn5fTGrvFYnA6nY4+cg6lViD5WHlnE17l/BzXksjh0eQijIT8OZQ/WLdcouiyj3zsylyjRzen/x//xf+Dw4cM2hRCyWOk5QfKDl4o4vnItypJE943cuRw/++4jaEeOmBt7jRPUG6i4FESb3KfTSd03kixHVDDh7A+QgiYq4vMs/5TE1ze8SXuRqW7I1JVBUh2amW3rBkYnLZMMopBJV8L18oqhEtJ3qM+vTiOp4ipm0+Wlyz25kTHk/W5EaBB9Je+SzVzkMDLg7f/cj8vqUpOxodFaU8O+V8iNZCtthUx2Q/U5GDd7eBralU6aPRNJmxZakLhCo3GNYHgwjJIucYkozEqbZr+OOm7Tfgsb26TZWJw6p2dPOrkfpXVuWfk72H9fzTXp4izbBOSa3ZZrJEccnn/+eTzwwAP2yGHHjh1VSzl33nknfvKTn+D999+3KYSQxUoPPmVzD7Z/74vo+/Hd+Dc7vO/txx5aPWVz7qIbNHVjoyuqziL2KZuBBVlGIt1MIrUXocmNSDobSxqi3xn0zW9+E7/4xS/M9498/PHH9hMnMqLfQXLllVfiz/7sz/glh4ScA/TmY79DT2L/2hn8bPlvIVD8S/xxk6UaChJLovJ4sKJPwHREE1CQLH70MV+51pYUJyqP/rZAhcemTZsQiUSQzWYxNTWFtWvX4q677sLBgwexc+dOPu5LyDlCj34PyRCe3H8nlv+suRhRKEgI6Q10P4mKkGuuucaIkpdeeqnukWBCyOLmnP1iNEIIIYR0D12/qVW/GOlUONVyhBBCCDn7dL0g0d+0eO+998yv+LaD5tP8Wo4QQgghvUHXL9kQQgghZPHTc99DQgghhJDFBwUJIYQQQjoOBQkhhBBCOg4FCSGEEEI6DgUJIYQQQjoOBQkhhBBCOg4FCSGEEEI6DgUJIYQQQjoOBQkhpCfRH+S77rrrsHLlSptCCOlluv6bWs8//3wsX74cF154Ic47b279pF8dr79jc/ToUXz00Uc2lRCyWAiHw7j33ntx/Phx84vAgUAAV111FZ5++mm88MILNhchpNfoekFyxRVXGDEyX95//30cOXLEHhFCFgMbN27EunXr8O1vfxtvvPGGTYWZtDz44IPmb358fNymEkJ6ia5fsrngggvsu/kxd7kIhsczGB+O2GOHRCqFhPMOqZTzrtMkUvV2VuP0xTFX7B4flpTeITI8bm1vn8p5WmASqYZjPfc5OFXO/PmKDKdwRkw/y9x444244YYb8LWvfa1KjCj6Y5qjo6O4+OKLcdNNN9lUQkgv0fWCpJ1lmkbMWS4SRRCzQDh+ZhzbApJOxjEwkrNHjchhZCCOZNoekgVn7nNAzjSxWAzpdBoff/yxTQGGhoZMFNXlqaeewt13340lS5bYFEJIr9D1SzZin303f15//XX7rh6dlcenBzAZyiA0WXHmOvNGMom0iZDoW/1AIxBJhH1Ontl8SpwTJC2O6QHN68ygozOaLk5LZ9n9mcYOLDIMKYaCP+zUN5tHSipzckqbmRgC5j1QnHDs0hluNJvECJqXdeyeRKhcfhb51ACqTBC7MjH7qemDY2tdmqD9cZJnUSzKP5MDYouOgzEAYTWgOIF4ph/jyTB8Ve15x6uIibiOUU1Zmz8bHUfSyejU51VVZqymkUWsbIvbRtV5athnrw1ueiO7tJmKDbonwT9Tf+7aOQdV1I2rXi9J9GXdczqOQfxPlMK/XWN7Axu91wykvWwfBvtnpGzYKVset8ZjUbbda2TNdajXWqbfjkNVn2rs2SD23FJbdoOU3VMpe5+UNXcVKbtHyi7T98443CdGnJSx2SP2v6X2//rXwNH/hg1ivymSGMXe0M+x8WE59tyZli5dipGREWzdulXSKx9ce+215u9cl2hdNm/ejO9///tmjwkhpHfo+gjJmSGCaLCESbmHpyeLCIRax0gSqSSChRTi8bi8JsQRDGI4ksN0KQCnaAIh8QK+vqCTP+RHIVvnoioEJN+Y1hXHRCmMuKlDb/wxiAdy2knl4Y81WJZoWNYljaTYV1SnEHcds4s4K1O9U9Y4XHVKoUmnPXll+7RfmjWFmF/r0PQxzPiNN7IEEMSY074IhcygmiP5JkoIW2MSKZPo1JuaQbS8HlMp6+bPjQwglRfRo/32ihGXQMwIxnKZwdrlDe2z/TxVQLBsg/ecOWPR0C4Zg8FwqTwuk9adt6TlORAajmsOI2NyTqNqfwLxYAFjI9+oO19Nx85t0woFX7gPk6b+FPL+qF2SaTwWTSn3YwKIZUQg2fNaWid9ciIMdfaM1tijZe/eW112s1v2SwgeSmGDsUn+btYN4rGI85mxf4OkJ55C/vIQbBEkPuvHK5ldVWJEueyyy1AqlarEiFIbIVFUVK5evdoeEUJ6hXNTkOhyTWnSzI5FkaAYCNU7/jIqNorIlr17Gpk8oNpDxYy/XzxBpB/IT4hj0Hoi6PeXMO1mb0QxWxYLWofBLCHlkXF9cm4E2aIfWn0Vjcq2RRqTxQBinv0KkWgQPnH4mUzGvGIBn+lXQtRVMevOkHPIFmbNO4fKWBRmREi4+XQcTaqOlw/hpFNnRqMn/n7bpmccy/nnQGb/ZZ2iZXx9Mk7VaLShuq3ac6Y0tusBGQPkM861ILQ1pnOcg2bjqud0rBBEMhPFzJg7vl5ajJ2nTWW2bLOen5J5p9SPRQvKdRYwM1sZr/TklPxfHb/Ys2oue6Tsb5qVnUJ2W86JfOjfzSsnnXEQ1P5d5gOx/9DlCBlFksBn/YeQPVgtOhSNdixbtqytpZj+/n6888479ogQ0iuck4IkEZcba9lhaIjbjXTME3GQpWAUiWgfZrJpcQxyM0x4xE6Xofsg4mPAoPTb3aCpYXQz+7WvRkGK+aNLDZU63Vn9GSGRQrIva9uamEPk1Nv1S/vJQnPq43oaYzevsWgXXaY5RXvaJJc9hMtDm7EkEYL/UBYN9AhmZmbw6U9/Gj6fN1pXj25mv/XWW3H48GGbQgjpFc5BQeLMnqtu+ro8YkLpjXAiC9HyYwoJiJ7BjIgPMzuU+bpOsjUikpsGgnJQ0rWgGnTm2vIpjVxWavOE/yPDiAbmiLScCjJLH5D+6lQ1N12Cr8GmXo18VJaxdHmrtROoRmfb3vE6TTzRq8hwFIFitdiL9Psx65wMOTUhu+BSe86UxnaZMRBRWT67uvZ2mjQbVz2ng8ECUrqcUrf0pJze2DUei9NBox9iz2OnYo+cg6lVpqxdwEF83RL7d1ODXPuHLg9hNOTHoexBG1Gp5+/+7u/wwAMP2COHHTt2VD3er48FHzhwwHwXESGktzj3BIneqGucmiMGRFg0ue+mk7pvJFmOqGDC3Z+h4XLA51n+KYnvbnjTnRO7xyDmhseDKKScTZfzQxxBKYxkZrzmUU/d8OipW9eG0kmk8n7E3PSMs2clNzKGvN+NIA2ir+RdspkLfeLHO15zPy6bk0E0/W707K9M80O2nqQ685pQQ24kW2krZLIbqs+ZjkUTu2QMdB9I0qaFFiKu0HBcIxgeDKOkS1y6HCdtDppx8Z6v+Y+dl2ZjcepYe9admj3p5H5Tdq8pK383+++Tv5tGcsNZtgkgi22NwiOW5557zizHJBIJfOITnzBphw4dMhtaNTKiYkW/JE3tJIT0HufsUzakXXSzrW5srN0kexbQzaHxaQwszDoS6WISqb0ITW7Ew+mTTSMkigqPTZs2IRKJIJvNYmpqCmvXrsVdd92FgwcPYufOnXUbXwkhvQEFCanH88iq4j5+fNahIFn8yLW2V661JcWJyqO/baC/Y6Mi5JprrjGi5KWXXjJP1xBCehcKEkIIIYR0nK7fQ3Kqm9O4qY0QQgjpHbpekOhvVLz33nvmV3zbQfNpfi1HCCGEkN6g65dsCCGEELL4OSe/GI0QQggh3QUFCSGEEEI6DgUJIYQQQjoOBQkhhBBCOg4FCSGEEEI6DgUJIYQQQjoOBQkhhBBCOg4FCSGEEEI6DgUJIYQQQjoOBQkhpOvQX/O97rrrsHLlSptCCFnsdP1Xx59//vlYvnw5LrzwQpx33tz6SX/LRn9Y7+jRo/joo49sKiGkFwiHw7j33ntx/PhxFItFBAIBXHXVVXj66afxwgsv2FyEkMVI10dILrvsMixdurQtMaJovosuusiUa0YilUEmU3mlEvaDeZBIjWM4Yg+8RIaRavhBAyTv+Kk0XstC1eMlkUJmfBimJ/J+vFWfmrYfwfD4qY1vPQmkzPlKybsziLffts1G9keGx6vGx31v0k/z2vKi9S30qa1G+tiggfp+LLGfWPScZ2r/BqSuvQ3yCpHhPc4Y1X9UZuPGjdiwYQOeeOIJfP3rX8eePXvMv1/+8pdx0003YWBgwOYkhCxGul6QXHDBBfbd/Ghdbhb5VBzxuPNKpm0yqZBOIj4wgpw9PDVyGBlYmPGNDEeBCT1fSZy50yUCKuSXq8PD7Cz8oVqHHUE06LPvhZqxKho75ZXKwx91xU3vUdWP2Ci8OiMSDeqfEcLxBKo0hhmvzdVpOl7XLrPvG3PjjTfihhtuwNe+9jW88cYbNtVBf7l7dHQUF198sREmhJDFSdcLknYjI7XMu5yJAgzbWbi8yrNGd2aur5oZYVBnibX5vTgRAqds85l9JWJTqb9qhurWbSIRw5U6yzN5Dzpbr5u5CibdKafRDm+Ex7RV1Ya8l39NpEfLxQLwhZPVEYFa29Df0K5Eyva76fhW9zUl+euiMVI2GfYhEKvUXTU+bnve8WkwNjrOnmbriAwPom8yi5I9NpSyyCJaPZ6JOIKFPIr2sDxWtQT74CtNNxB1Da4LHdOyzXrNpfCo9LHcb2t41VjZvphzOeyck1RC607JsZtvjmuqHXJZFGb96L/FHouV0WAJ2YEsiqtC2OxVH2854/WYNxQi43XtIc94NSAWiyGdTuPjjz+2KcDQ0BCuuOIKewQ89dRTJt+SJdVyhxCyOOh6QTIv7tmO7z05ZA9a4UM4aW/Mnhu2L9yHSRM1SSHvd51QGkkbSYmnCgjKjNBB6pBJ+1g5f6zO2SVSg5rBlp1BtJETCMQQmrR5JkoIDzpOKTcy4KTJa8LrEAMyM7V1TpTCKJujqEOOziAVH8BIlRcUBxfTAINTbkA+LMyIv4xqpXa27+837erMtzTpiUHo7H+iiNl8yokCaBueuuJu+KOVXZaG4yv1DYZL5fomEXAyexEbUvlZZ8auNqhACRakn5X2Bt0Bcu1oEN1JJ6X+UPU5L6N19mXrozkyLoVJOS/lDonDl/OeHZm2x/UYAaHXlo5Tg/BQw+tC+uiOmxMNSuIbcg2U+631iI2DGHPKyRjORF2RK9di36RJd5oLIOjm02vK2t70mpqLSFTqKyDrDqgelyblLyONyalVCHkVyeXueLlREhmvO4AD22S8muxW0yVZ3Seme0a8PPvss5iZkQvVonvDNI/P54lOEUIWDYtIkNyD7fcGUPzhDnvcCu+STcV5z+Yzdjkgh2yhMk8uzyyTYfis4zZ1jLlOT/PPiu/y3uETCAU8wqeqrIfiRMUJpidR9PXJzV+pRGZiUk+fkyj5s2V705OeG7g4+PFkn8xa6x2x5MRkMYCYJ2qQyxbgVBpEX2lCnGEQqk9kUo8Z+agZJlRfHicPzezy0Gh8a+trVtZLIiTnOVvpZzqTt30RPHY0QkVJPD4GDMrYeiMrKuQaiAdDOiMCKuQ4/7Izbk55qSM+iVBdZKz5dZFOTgAiZhoKI0H7bSJV5rpIIuzzw7nk5FrMeAsURTCVT4YnMtHkmmpCWVipfvJcV17Rmp6cwqraJZpdMl6X28iJjNe1b01iV4ut87rf68iRI/aoQm2ERFFBsnr1antECFlM9JwgGXpyPxoFQe7Zfi8Cxe/ikR/YhIXCzpwdBzPRMuxcT7ESSdBXQ7HQCA27RzFjRZPOktvDdVD1GEds/LCzZGPC8OpkEyFAnEtaZrV9QXGWfs9MeDGi4kOcebBgIz6SlIiLKPCFkTTOOoaAvq9a8lEB5UdUxi0RD6JQ5fxb4QjBui0op3xdeMWOvmojYa2Y/zXltJVCHhq5cSVHAvF1dhlJxysWwJJAzbKNjtehyxF9zBmvQ5ldzYIjBn2iZtmy1ntMXPr7+/HOO+/YI0LIYqLnBMmvZo5j5doaRTL0JL4YKOK7C65G5Dbe78esGzIQ511ZUPDZJQ9FbtJhoFDlyQuYmQ0YJ9YSuZm7/kpD9YGizr6D6POVMG2qq9lA2YxSFgO6pJRsvlcFuRHJ40YTcpguiZON+p2ISGEG/mhUO9HSOZrISjjevI15kpsuwReMlp2/RgHmQqMoAc9mURUULcM6FrNXx6yWOMtWLk7UxH2J6JzNI1UjEnIjWZSCg4jOS7BpNKSoes9D8+si4ayrYQL1y39KYWa2qt/z4xSuKYNuTJ4A7rabWuVvYNXUBDaUx0vFjVxHIj685EYOoHStHa+Drb9ZQJdl9HtH5lqK0Y3qt956Kw4fPmxTCCGLiZ4TJD94qYjjK9eiLEl038idy/Gz7z6C9uWIdw+JjRg0wTgiN0we0rmtyyxKfYO2DnUktbNV50ZeLtusHakwZD83+yJMrD6NjNzkYyZ9EH2lNiMkRnDMICrlqh2aZ2NusjLD16iIz90boBETObIeq5r0pNMPjRpIG2Nl2+TVyHPOB7t3wolOZBBqJwZVUyYmLtwrMJphhMc8ohHVyDkRzVPyLBU1oxw9cDaR1CzvNLkuEinE/HnoqdElKH/MEZYqAP1an4yz7gHx9rvRxt3mnOI1ZUgjuV80yZ5hPCqCcWqyOuJhRKpHVDpIe4dOynhtQ661HjE8//zzePDBB+2Rw44dO6qWcvSx4AMHDpi9JISQxUfXfzGa2GffudyD7d/7Ivp+fDf+zQ7ve/uxh9dff92+I72CRjF0k2+z7RxkcaJPxX3zm9/EL37xC/P9I96nbTQyot9BcuWVV5o83s8IIYuHHhQkwtCT2L92Bj9b/lsIFP8Sf9xkqYaCpAfQPR26sdMe6tM87UQ7yOJDhcemTZsQiUSQzWYxNTWFtWvX4q677sLBgwexc+dOnDzZ1bcrQshp0JuCBEN4cv+dWP6z5mJEoSAhpPfQ/SQqQq655hojSl566aW6R4IJIYuPHhUk7UFBQgghhPQGXb+p9VQ3sHHjGyGEENI7dL0g0d+xeO+998yv+LaD5tP8Wo4QQgghvUHXL9kQQgghZPHTc99DQgghhJDFBwUJIYQQQjoOBQkhhBBCOg4FCSGEEEI6DgUJIYQQQjoOBQkhhBBCOg4FCSGEEEI6DgUJIYQQQjoOBQkhpOvQH9i77rrrsHLlSptCCFns8JtaCSFdQzgcxr333ovjx4+bX/gNBAK46qqr8PTTT+OFF16wuQghixEKEkJIV7Bx40asW7cO3/72t/HGG2/YVGD58uV48MEHceTIEYyPj9tUQshio3eWbBIpZDIpJOxhRxAbxocj9qBdIhgez4jt46gumkAqo+nOK1XumJu/ukxkeNyTxyk7f1vOLNU29jLNzlmbRIYxvhADsVD1eNG/o/Fh6aHzvvU1pOPQ6G/OGZ9UYok9Pn1uvPFG3HDDDfja175WJUYU/aHM0dFRXHzxxbjppptsKiFksdEzgiQRCmB21o9olznhOUnEESykEI8PYCRn0wxpJONxSZdXKg9/zN74E1FgzE0vIDhonUcZdQYxYCKOgeoKyULR9JwtAtJJxAdGcHrdymFkII5keuGCq7FYDOl0Gh9//LFNAYaGhnDFFVfYI+Cpp54y+ZYsWTghRAjpHnpkySaB1Hg/MmPA4KD4a/eGqjO8/hmUwmGIXEE+NYDpeAaxgHxWnEA8mdZcJl/GJCpF8eVJkQPi2FNRZJO2Lp2NxqcxIGUSqXH0z5QQDjtliuL8k/DUMZtHqu6mrlGLmNjhYMoUpM5kGD4nxbbbAE/b1dh+S1uiQhCfHsBkKIPQpDoDm8WLGY9JFIIxhE2jlTYTKTsuwmw+VRYzlfRZFIvyz+SAU7dnzCr5PX2sGQONjiSdRrXzztg3HHcvKq7iQMEvYw1z/kaC7bbbIM2Mo1YXRhgllHyz+Em5zcpY5hr2zaJ11J6zZtdPre2VwTDnM4tYeWzdzxuOk9du/aiqP/a6MDb4q9tRavqS7RtEf8bTVl/W04bUlelHKppFcjpe6ZN3TPfKmBp/L/3ckEH/HrePxrBy+4lUCkjKODSy/T6pS+4qkeE90tdlWpnZD+KfyeA+KVx7w1m6dCm2bdsm1SVtisO1116L119/He+//75NATZv3ozvf//7Zo8JIWRx0RsRkkQI/kIWuVwWBQQR9YQMfOE+TLrRhKTjrOPxFPL+qBNu1xumCSg4UYdU3o/YnGFwH8J9k5XoRXQYEZ1ZThTNTb9+hlmJWlRFPHIjGHDL1Dljx2GYpRkVWUYFVBMZjjr9tsf+6DiiM6nGYsTiC1ciLN6+ppPWNhmbQjAurkcQZxbziwMx6WOY8VtHqWMWsv2Xlzo5HctEytPHmjHIjQxIeyJq9HPXAbY17gE5o2OSRxwd2m1XxzvknHd9Zfsw6EbOAkGn/wOD+EkxgJDbpHsNNelbmdpz1rIfHturLwj5KGavRXlNiLi1kS4dJ7ftCdhrVHHt1vRSGHHvUKkN0Rk5T7XtiIDw2KbCqjADBM0fSATRoJxPf79pNxINojTpuXDqrmd7De/fYO2Tvhvl4PbR6cc6MawuPlFl+zrEN0sOsXlL+C0RNU76JFbZzPVcdtllZn9ILbUREkWFzerVq+0RIWQx0ROCJBHyo5DVO3EO2YJ7w3WYzWccR5+bRklmZxnnQPKV9I25EcPNI+RGsijam3RzZCboVCQFRAQ5VTUnEpWbttu2IE4tW/Sjv3UjFeekkZ+a/THu7LZq9i74gtGWts/mx8pOKyeDNev2VZ2a2ZeSlJmsY5sugxWzrrDQMZs173TMfOJQ3f0tsYAPfTKM6cmi+Nn29lW0P+5FZK3Bbber4+0LIGbz6UzfpxmVYrbc/3RGhKFVJO411KyNZrTuR8X2OooTFeGYnkTR1yfXiKKRnQZte+2W/pYRYT2e7EO2TgQraUyK6Iq5e0IEPedOpUH0lSZEIDgCPtgHzMhHTSlfw7XxC08fpR9T8k9dSLXKdidHJHotlsi47bKZNb2unEWjHcuWOZGUuejv78c777xjjwghi4nuFyTiSKNy4w4nnZu4hrvncso9h4qe2YqA0WWUQZ2V1oRCStkBpApBJOe90VGcoDo1M/OVWazH3zXDiRA4+fVlTNFZtaOeKhsjF5i229WlAU++2rEy6Lj6Q9L7BEKoOM2GbZwVNAoRxUzKaVcjSu3RXNyayJcZGrvJ2e1zIgRMpkUIlESfSP/9BRhN34XMzMyY7x3x+WyErgkXXHABbr31Vhw+fNimEEIWE10vSJwZarUDqQtpt8DMGMN2iULQZZBAadqZbforyz+JuLtv4BQwS0kem4yIKmG6XQdgZvxOfo2MaKi/NjLiolGVCcSaPh3hFWvaJ5hlin74Z2fERpOKkN06UJiZRaC8pmFD/EJuugSfZ8yq0Q2NKZlLuzP+xrQc9ya03a5Gw3ztXAMa9fEjlHKcs0lp2UY9p9IPQ0CFkIMpU5xEWqMW9jx7x7slpSwGzHJkiyfMdJkplbeRkRymS35Eo34nIlKYgT8ada4Dk7kJ5Wt4YTaM5qbfwqfkWrzFVpcIrapf6vHw/PPPm0d7vezYsaNqKUcfCz5w4AA++OADm0IIWUx0uSDRm7beS6tvpSaEX3akcyA36zFd97dh8mSwgJSZEouDy5bKkZfQTB5zzlfTkyiFkw2iA1LXmO4bcerKJIMopOr3jFShmxGtTd78wT4fAm495lW/RJIW51QIih0NIiWzpT4zW9ayMZEuRtjoEpKIuKRJF+dsIyS5kTHk/e7yxSD6SnYE0klnr4Stx33cWiM3znESwUJlGcNFnbcZA7Wr6bi3oO1200iafTpuuvex6WqMTSLAytsnmrTRlFPphyJjHKork0amXJdnvOfCCI4ZRKVcdT8ryz/mGrJrhhoV8Ym8cFY5VWiI8GmkjquuZ/ca3uvUp+NyOtpExnl/aR2Sex37QmaxpznPPfec+VbWRCKBT3ziEybt0KFDZkOrRkYeeOAB8yVpe/fuNZ8RQhYf/GK0xYSInPH+TNPoSmt0OcE8wlRe2iBkoUik9iI0uRGtHhVW4bFp0yZEIhFks1lMTU1h7dq1uOuuu3Dw4EHs3LkTJ0/ydkXIYoWCZDExX0HieWRUMY8qtzH5J2ROIsPYkwzD3aqq+3YaPfLbCN1PoiLkmmuuMaLkpZdeMk/XEEIWNxQkhBBCCOk4vfE9JIQQQghZ1FCQEEIIIaTjUJAQQgghpONQkBBCCCGk41CQEEIIIaTjUJAQQgghpONQkBBCCCGk41CQEEIIIaTjUJAQQgghpONQkBBCCCGk41CQEEIIIaTjUJAQQgghpONQkBBCCCGk41CQEEIIIaTjUJAQQgghpOMsufrqq0/a913JRRddhEsvvRTnn3++TSGEEEKa8+GHH+Lo0aN4//33bQrpBbpekHzmM5/BJz7xCXtECCGEzM1HH32EN9980x6RXqDrBYnYh5Mnu9pEQgghXcaSJUvw+uuv2yPSC/SMINGLixBCCJkL12dQkPQW3NRKCCGEkI5DQUIIIYSQjkNBQgghhJCOQ0FCCCGEkI5DQUIIIYSQjtP7gmT9VuzYscO8tq63aYQQQgjpKXpckISx5WbgxaEhDA29CNy2FdQkhBBCSO+xuJZs3j2GKfuWEEIIIb1DjwuSPHY+8hrWmCWbm3HsmZ2SQgghhJBeo7cFSXgLtu9Yg9fMks0zwKbt2BK2nxFCCCGkZ+j9JZvDr2GfeZNH6ah5QwghhJAeo+d/yya8ZTvuv36pc3D4RQw97sgTQggh5yb8LZvehD+uRwghZFFBQdKbLK6nbAghhBDSk1CQEEIIIaTjUJAQQgghpONQkBBCCCGk41CQEEIIIaTjUJAQQgghpON0vSD58MMP7TtCCCGkPeg7eo+uFyRvv/02PvroI3tECCGEtEZ9xtGj/OruXqPrvxiNEEIIIYsf7iEhhBBCSMehICGEEEJIx6EgIYQQQkjHoSAhhBBCSMehICGEEEJIx6EgIYQQQkjH6frHfs8//3wsX74cF154Ic47b279dOLECXzwwQfmGXR+fwkhpBfo6+vDlVdeidnZWfzTP/2TTSXk3KLrBckVV1xhxMh8ef/993HkyBF7RAgh3Uc4HMa9996L48ePo1gsIhAI4KqrrsL3vvc9HDhwwOYi5Nyg65dsLrjgAvtufsxdLoLh8QzGhyP22CGRSiHhvEMq5bw720SGx3Fmm+5c38iZRs7t+LBc3Q1IpOqu93kjdezNZJCpesnfzBL7eSsiw9gj113jrGL3Xk+d2od26mxKBI/tUbvmqCTyGPZ42k1JR5aILaN7tP1WZavrT4zulbG9FXM152Xjxo3YsGEDduzYga9//evYs2eP+ffLX/4yPve5z2FgYEDqO61BIKSn6HpB0s4yTSPmLBeJIohZmaLE5fZDCGmLdBIb4nHE4xMozuaRMu+TSJ9OnFWFSiaKmW9tkLq0PnkNjCB3xmO3Iiq2rMUhadfpUxxJ6cipNJt+eAMGRv4BJ9ssfOONN+KGG27A1772NRw+fNimOujPZaRkYrRs2TL89m//tk0lZPHT9Us2Yp99N39ef/11+64ejULEpwcwGcogNKk3IiddIyRIyg3WRBH0rX6g0ZQkwj4nz2w+JTcfSFoc0wOaV8tlEJ3R9JyZRY73Z5z3HrTNpK2kOCFtIoVMdAYpvflqe5kQjub9+G23oeIE4tq+1JeJBUyS07bbxgxK4TACkm8CUfTPlBAOO/lM/VLU22a5vqq+efDWKWItnxrAdDwD03S5rJOv1p5EarzSvjqqgWnEMzGpp2KLwVNWPsGEOjMzvnGg4Jfyn8Cx9z7G//f/NQBn+PSzQWDMPXbQ8XarKY+JGUOnTccGHdcKDctU9Vnw9rOMp147Lk7RSp9NHwvDGE+GYUa7WETRP4OM2BAsX1OK1DXeb9JzpzHeje1GQzsN3nEvj423X1qF5zwpIhTGk33IblDBUXsePP3Q93ulHjOZ13bvkzxyW5E290qbmqx235eNYnd8GvdLIyfNZ368Inmn49+Xv8GNRgxUoUJFLotD/jDCEJvvkz+6x/bI9bzMfFyc2ICHpcwtw5U0HYcNDxfw6O4v4XPLnOhCOZ+U/dLnlhl7nLTNeHxvFL9+4j5s+wdXiCQwKn1Z7fblW/che8dufEnqN0lN6s/0P45odiu2Sb9PYrPUcY+tQ67xDQ9jlygVb+8effRRfPe73zXLNC5/+qd/ir/5m7/Bm2++aY4/+clP4itf+YqJmpxsV+kQ0sN0fYTkzBBBNFjCpNx805NFBEKtYySJVBLBQsrO3ibECQxiOJLDdCkAp2gCIbmr+/qCTv6QH4Ws6wkscgMexJitI4WZaAoJmW1OlMKISx2R4SgwkcQ3RgaQys/KTU7yqXdQpxCatOXiyPZp206VvnAfJjXdeBEfwn02XyoPf9QJ2+ekPresipa5IvblOlMFBJOOWFN7835btqk9lfZThSCSIq6ceiq2mLIx6aYtmxLxFSsvHQUQNONzLzb/XQnBqDVUI1mlbJUYUdJJpw61rRB0olyJlKncSa8RI0qjMkq5z95+VpFG0nwuLx0XPWGGSp+TaXHYg2GU3PYntUdzc+rj3chutdONXFQLOI1sxCeKRhg4Y6MCwzNeep5iNUsvuRGMyTmKPiYNJuLyNzBWdx4cpN0Nbj0FXBvfbJY9UncD+226iqiyS1WhIUL8WxvUxs0IrZrC5K4mDjcgf1NjGxybN49iC3baaIb8Dd0xis1LloiZ9zlty2vi5B147JaD+MZ938JPj6sY2GCEzsmElF2yExuNPSm8bcruwsP7j2Ddl/ZiT3m5JY2HN0zgV8dlDDeIsBKhovW7EZRm9Xs6J5ophiX7N2CDaUvFXLUYWbp0qdmoPzU1ZVMcnnvuORMdcdHN+SpYfD47oSBkkXNuChLj5CadGWt6EsVAqOyc6lGxUUS2fCdOI5MHVHuomPH3y8060g/kJ8QpaD0R9PtLmK65cSdEsfjCSbtWrdEWP7RoOjkBxDJI9mWrZ6eWSDQIXyBWXuOOBXymbWU2n3H6YJDZXMYe5bIolJy3an+qQdlmlOvMTaMkjs2pMoesrbC5PZX2c9MlTz0VW7SsZCrbnBvJoujvd8SKzCTLYyznpBSMmnQtU1LlWIs6amODZyxVXMbGGwgKS4MySmUcK/2sRSNNps8aASnb7BlzswTojpeg15V924pTH+/27G5Krb0iPrJFGZNb7LElNzIm4k2uWxEQY43ViME7PstkfG5Zksbk1CrEzF4Mm0kR4bQn2YcD94nAaKJBqihmse2gkzHx2QCWyd+Qs4dFzuEy116NatjxWb2s4TVeLmvyJfE5LSsncUn6YSM2sp9+SD5rtudk7vrLRO6QcX0F+3aJRmnSv8suuwylUv35GhoaMk/aeFHRsnr1antEyOLmnBQkibg4lfJNXkPWbqRjnljHmYj2YSabFqcA9Cc8YqcGE/WwM6147Qy2BWZWWy5XE1Zvic6Co5hJOeU08rIQnLo97SLOrBRENFKJZFUjIkuXEmz7MvF30ChAfAwYlPNat7GzSZl2SKSMYHT6O9GW0FhIzvx4nyYyPl+S8SnvLbGOOJ3cAD0dW8SZ62baiqtXIeEeFTAz6z1ujS6PuNEK52/oFgzvieLXdv9J6qfHbc566sqWl2nE1oel/MRJ3D26uWZjqkY87sCvn3DKtqq/XfSJmnajHitWrMA777xjjwhZ3JyDgsSJeLjLBublXVaoQ5xjMYBoedqdgOgZzIj4MDdTmQ/pxF8jIjLJRbDJjL4wM4tAgzbcZYYJxBo+WaPRBt8pb7wNos/nRmvUuZ9+6Pd07MmpYvOU1WWqQGla5vf1pCdLCMq5aSjuIv3wz87I6CvOclmFHEYGUjL375Pee2hZpjWRfj9mnRMuRUONl2I0wuFTEWWPq/JVBK/ps/O2LU7v/LdAI1dwlgsNkWFEA3KtHLTHlsjwoFmu1GW4wSahJx2f38j4GOcu/V7ldei5Edwnf18n3bBCKSvHBVybHLXLQ3K+DpSwrnys/P/bu98YN877XvRf+U9ilbJLSQhlO2tDlFxKQXkt8V7DLcoKTYgAQv+wgGlBL9RuUlq414vcN9Jh/cJN1g2wuXDdeI4CFDBWhXvYiCgM5MB0AUYprhqwKnApnao5l32xtVHaONwaGyNicGUeS0wtrSzd5/fMM+TMcPhvtRLJ3e/HWIszHA7nH/l853meGaog/br9WXHPqvY/5TP0LXizSwy/LMe4Xu4kvtLjGJfP32712v5XzgSRz9DP9Wfodp/5t1X+QW3Xg3juj9Sy93irZrOp7zsyKJTIlYKHDh3q6vRKtFFtvkAiBUXdV8jpL2dXYeIjzSqNdnOLBAindkOqyoGQq/mnob5jnLLLTfpySH+RnJ6HOYNXZ5bpiF1tni+aNnyZVs00klbTSEJRZ/26r4XzOrnE0p7lEKR5yXntHMKNdaghuZPlMX0SnNfmYjVYvU73ZVtGI6i12xRcpHmhvS3j0tqjSadVe5mkz0+naUjr8ZphSNNSe//3fGkeuVIDiZxZBtd09r61x8+pI22kGpaRt7fULsl6BjRdyTaV9dC1RyoILHaWq5iLoWZJfwczrVAhZS7RQPk7FXsbHOz0X3Gzn+tsH7tnhHR07cz7/eJfd/pR6JDSxFfU83KZrazj8yXg95zp1bGKd76jg6p7caQvR+nyQeSc6fSlwXm88y9fQPrtt/Xrtv/8F87U+IfaF9Q839bvceE7X8MP1Wv/k57Ofu1vbnEto/ylt+CHf6yW83Ye/9qQ9zmD+d/8az1/mU+/+XeSUwXfOV3FF37vbdM8ZDcD+bPJ3//93+OFF17wXNYrl/86HVqFXBIs9yJZXV01Y4g2tk17lQ1NOOnvoS/q6O6cOhVU2CxKZ9SJa1+hSSC3JfizP/szvPfeeygUCp67SkvNyB/+4R/isccew5//+Z/zjtO0aTCQ0ISRfi/S6VQuHx2+n834OcttBuVKl2kNU3RPSPA4evQokskkyuWy7sC6b98+HD58GBcuXMBf/uVf6p/CINosGEiIiMZI+pNICNm7d68OJRcvXvTcn4Ros5j4QCKXwckNgkYl1/C722OJiIhock18p1a5UdCnn346dNWlTCfTu28wRERERJNt4mtIiIiIaOPbnHdqJSIioonCQEJERERjx0BCREREY8dAQkRERGPHQEJERERjx0BCREREY8dAQkRERGPHQEJERERjx0BCREREY8dAQrRO5EfS9u/fjyeeeMKMISKiYfHW8UR3KJFI4NixY7h27Zr+ldZoNIrHH38cb731Fs6fP2+mIiKifqYikGStItJRM9CqwppdAOYLyCVCZiRQL2WQywNJNT6zMqsfdyTV5BmszObgGT2qrIXCTBGzCxUzwrFO878jsgw5JEItVK1ZdC3iIMl5FHIJ2FvUPQ9nvt7xsp1zsZreF963ysIqpgGzPzz7zvV6GZ9qWmpbyq7sse08y6TUS8iYHTvKMdGm5xdDzbN9vMvr1nsdO44cOYKDBw/ijTfewEcffWTGAtu3b8fx48dx+fJlFAoFM5aIiHqZ/CYbFQLSUAVRJmP/uQoHKXDs8SUgXcB80jyxGWUziNUstS3WEEZEZQGzzjYuNZCYm1dRRMmmgEUz3qoh5oxHQ8WLGFL+bZ6No50/NAkhrvlmsnpsPpcJCHYBJISY5SqpI6EgO3mYY8KqIpK2VNzoSKZisjjtZWhrtRCJ+8aptUzFOuEmyIEDB/D000/jlVde8YQRIb82/frrr+Phhx/GM888Y8YSEVEvEx9IkjMR86ifPJbq5mEfM+qMt1gsqj93eJEaABln/+kCT5MzZzO+oAphVQgW1Sl5KJGzh81U9uulBiGKtJrWMuWanF078/ROb6izdcuVoGT6oNf2G9cmZ/7OshXtQjj4/WVZLczr5/oHuFatbBfy+YVOwKmsqBjSUSurgOIp3NX8VX6pVlWpH0D2ZatZsx/Pq+VIBm+7XvJmJw91TFTKqLUimGmvowSMBsqzZdSjcU9QQaOMMlLe7aEDXhX9Dqt0Oo18Po9bt26ZMcCJEyewa9cuMwS8+eabejoiIupv4gNJZWER1Ui6XdAGUgVyKtrASt8T7qg6n1+0z55dZ+pZK2dqFuTMuoRGYk4XTFnLrsZvn4Hnc+p1dbSqalpPFX4FC7MWqq26mtxU+6vwoqv69TzVmX0jgbl+pb+bWpc512ud+c05y56x0Ez5toXUbjjLlskh3/f9ne3QXZMizSA6wMSXAmsvkiptRJygggjCqhivRVwFuS7Ei2qsWwiJnD1fWaZFz3wDtl1PEnaiaKidPNwxkVLrWUPZeTsZbiyp6CrhNQpPhUhkBrWlzjFhvxdQXlgxw922bt2qm2Wkz4jb2bNn0Ww2zRBw48YNPc22bdvMGCIiCjIFV9lIoaUKVquJlCrUOjUYqmhNmwJU9wsY1H+jrgoYUzrll8yZbxbxqGu8mkOxCoRj9tl4dI3NQNl4FPVyJ7TknZkOQ87skUDOVV0g87NrP2R9pUbBfebfrf/7u9fXS5pRdOhZinfV6kiNSy5c9gUVtW/KDcRMu002HkGtnQAcriabRWAuqLaon6gED3u9JTjaoWWIY2IOWHQFR2muaSzZR4jet/4mmnxRhRxTc9IOL73t3LlT9w/xO3nypKeGREgg2bNnjxkiIqIg03PZr+7jYKEWs2swRKcPyRr7TfQjNSK6BFWF26iF6B0xha2EAlWwOrmks653aX3dJLCFwnAijNSc6BqaoCoMNW0jkUFWaqlQ7r9cOmwF9Dvpx9WHpKvWpucxYaGqQl2nNSmLTCLUCSvSG9bfbKO2e7kWQUrNKJtRAbfYP97KFTXD1nrMzMzg6tWrZoiIiIJMTyC5K+zqeymEbFJwAaabg2KaFNApnIehz8BTnRCT9c60LRJLmWnsAtPDNBFFZpKoNVue+Q0y7Pv3JB1TW00VHuyakfhSvw6oUqukCvK5Tg1ET/5mlLtG9pt0dDZNOrI+rmAjf5Yss6tmRVQWymiocJOKDF5GaZaR+46EQv07vj744IM4dOgQVlZ6N/8QEdE0dGp1d87U1faL61o7kM9JvxGnOUT6jdi1D+3+FPo9i3b1va4N8HdqFfbZdbtjpgoT0m8jZ5ZbrggJOrsvt6eJo+l0BJUOquZ1sjjSvFJZmPXMb2CNzTDv7+PZznoz2M0dsbCrZkH/dTdj6YJcBY3gSoVOHxLdtLbo7n8jfNtuCMMdE3moXYu02lbflCYsX1iqlFXcagdChwpXanTD1dzVz7lz5/SlvW6nTp3yNOXIZcHlchmrq6tmDBERBeGN0YjW6L777sNrr72Gd999F2fOnMFnn31mnrFrRmZnZ/Hoo4/qadzPERFRNwYSojsgwePo0aNIJpO6JmR5eRn79u3D4cOHceHCBZw+fRq3b/MjRkQ0CAMJ0TqQ/iQSQvbu3atDycWLF7suCSYiot4YSIiIiGjsNvlVNkRERDQJGEiIiIho7BhIiIiIaOwYSIiIiGjsGEiIiIho7BhIiIiIaOwYSIiIiGjsGEiIiIho7BhIiIiIaOwYSIiIiGjsGEiIiIho7BhIiIiIaOwYSIiIiGjspiqQ3Hcf8xMRbU78/qONbsuTTz552zyeWL/2a7+G3/md38HWrVvx1FNPmbFERJtHrVbDp59+ih/+8If4yU9+YsYSbRwTH0gkjPz+7/8+zp8/j3/7t38zY4mINp99+/bhy1/+Mv72b/8W//zP/2zGEm0ME18HKDUjDCNERNDfg/J9+Lu/+7vYsmWLGUu0MUx0IJE2U2mmYRghIrLJ96F8L7JPCW00E31E37p1i31GiIh85HtRvh+JNhJGbCIiIho7BhIiIiIaOwYSIiIiGjsGEiIiIho7BhIiIiIau+kOJM+9hFdfTJgBW+LFV/HSc/oBXv3e9/A9/fcSZJR33Pfs6fTol+CbTeC814ssoz3vBF581b88z+El1zK2l0Et+0tdr3nVLLeMcx4T0SS773OP4aFH/0g98t5H5KHH/g/15DYzRLT5THcgeecDXNn9rCqOHQk8u/sKPnhHFdBHH8GlEydwQv99F++YKa68930z7h+BZ190vXadSfhxEo/Hc/jq7mX84HRVTXIUj1xylvEEvuss5E//0Yz7PpZ3f9UOU21VnH7ZvOb7y9j9VXlWjfuB85iIJtn9D+3GA6FfVaHka2rIDiUSRh74pV/BA9v+Fz1MtBlNeZPNO/jgym4866SK576KL135QI2tonHli3iqb/m8jE/wCHaboWDPtmsr2tnCU8vSqZV47iVnnNTGPIeXvv4lbP3ib5lhl0REvfUltYQqRjSu4It9F1LWYwcivVLT7keAT5btx9VLWN7xlC+8ENGkWf3kovr7byqUxFUQ+d/V98T/qcPIp40f4KZ6jmizmvo+JO98cAVfMjUDzz21A+/92K5meOe7J/DBU97Q4JF4VoWRT1Qs6W3rlx7BB7om4j3s0LUpUvOyG8vfd9VQHJXxz+GpHe/h+7pWQ2pj3sF31Wv+Q9d0dGpnROJZFYEaEkeUd76LEx88pYNMcPOQmu8Xr7Qnb3vuJTv8PPUBXj7tPDkgvBDRxLj+87exevWfdRCRGpPr/9+PcFMNE21m09+p9Z0f4z1dMyChYBmXXIW3hJITJ34AHO2Ekh1f+rpdmH/9EVx6+bSuqejlP977sR0mqg1c0WN24xEVYdrvIbUSupZFBZBLj+DrPYNFHxJKVJD5AY52XqtrViRMPYtPvu8NNJp5jQ4zr97FZiciumuuN36AGx//WIWT/4rV5j+YsUSb1/QHEhUpLi3vwFMvPYUdpinES54HHjFtM50+JAEF/UDSzONqInLXsriCRWDXkQGq7oVs9yF5Ge0KkCDvfICfmodENH1uXPm/sfrJJTNEtLltgEBiF+Y7vrgDy+2qC+/VK19/5FKnw+gdMZ1Hv27m3a5l6VwZ8/Xdy9CtRrpPR3cfEuk3ssO0q8jVNs4y6nkNtZDuq3CexSc/cGp5EojsCGjeISIimgJbnnzyydvm8UQqFou6tmDjUIHi1Qh+PKC5aGTS2farDby8PsmLiCbYqVOncOTIEdy+PdFf30Qj2RA1JNPlHfx4eTeOjtrXpC/T2dZ06CUiIpo2DCRjUD39suvqmPUg9yYZ0N+EiIhogjGQEBER0dhNdCC57777UKvVzBAREQn5XpTvR6KNZKKP6Fu3buHTTz/Fvn37zBgios3tS1/6kv5elO9Hoo1k4iP22bNn8ZWvfAX79+83Y4iINicJI1/+8pf19yKvsKGNZuIv+xW//uu/jt/+7d/G1q1b8dRTT5mxRESbhzTTSM3I3/3d3+Gf/umfzFiijWMqAgkRERFtbOwVRURERGPHQEJERERjx0BCREREY8dAQkRERGPHQEJERERjx0BCREREY8dAQkRERGPHQEJERERjx0BCREREY8dAsi6SmC8UUZhPmuF1krVQLFrImsHxs9ezaE3OEq2dWZei+ivMqyEiIhqnO751fNYqIh01A211lDI55M2QJoWrf8J6CZmcPVXwfFqoWrNYqJhBH/s1vabJwiqmER0wD7tgyiERGjRdP/Y8YjULs2ubQTC9zdC9LcfGbKtGZ7/dbXofR6qwZhfg37JBx0y9lMEwi5acLyAXqwXOd70EH9PqqK66jpMBnwu9nImQftzhP1adY9gMKp73MLqWx/U+g2Stt9Vrt5ghl1bwvnEk58+o5d9mhmyybF9Ty2Z/8ahlP6OWfYuaz9fUfDzfRn2eS87jTC6Bn5eexx/XvoXvq8fed7HV5fn8bfNeRDTJ1qeGRL6UMhlkzF+pHkXadWYvX6rFdER9iXamyWRKKrb4+OZjVYFEroDgiocs4iqMtFohJDL9zthDiKX6nP8mU4j5v+9psqnCqFBUhStUgeo6XjLqgImkh6nBSSKldnqrVr5rYaTNd0zLnxMUhv5c6IDfmabrc6GO4bAKw+152BN4a+xU8Ek1XdPI+0TTo9V2BaxLqXEQObUvrKw/rKgTgreLKvS9D+t592tKaBzM4W2pldIvqaD8/jX1MQ0jpl/notbrVyRl6Od884/9svpkt9CsoR02JHw871q2jPX/4gu/97Z+r9/cEhCmiGii3JUmm3xOvlSjSOkvxCwy6tStXvLXPuSRG3B2VllYRFUFjsBAkY0j2qphsay+vqPxdvjxq9frCCUyPZ/PZhIItVSwMcM06VRBp86GVSnefXZfWcCsKWjXvfls3d3556IdxNV659wzUcOL1RZCsZSKXkY+56sxUe9T6v/ZGUY+97wKSC1E02dcJw5Ss5FGdLmE56X2xFM9od73eQvV2wnkXs/qmFEpv49r6vsi/kdbPLEjmfoVbNOfTXkOnueyvxrFFvX5L1/oU/dR+Q6+9nwJ/+OXEvhPr/8RmEmIJttd6kNSQ9NXwkdm1reAyMaj9hluvqi+nNUXVo9v1Uiz6QpHPupMOyVNPmV1mjUUaQYy/Q70X6/aG8OcyQ+aXp8pu6fredYqVfP2NP1ObKVqvuf89DLJcnTmpf+C+lH4lr8w33UO21PvdRpxG/ok51Nqb9ZR9pbiLnkU/YWxm14nu3kjlMj5li1guf3bxenX0942oy2/39o+FxWsNMzDHmJhtYKNlf41QLWmKuwjuNOPpvvEQZf52QwOblOfq+Jf92gqqWDhH+q4rcKQyiCSSCCVJJGZ37CfNmK/bNdi1dR3ife5JGYiW/Rz/fKILY8//uH/sN/LX8tCRBPlLgWSGOzvQ/k6zGNJnYjJl3+/QjSYez4uqjCQIFEry/gKyuobK5rq1TGx3LOASqZiCMlZ1jB5RBdAaUTkzNypEi71fqEu2HIx1FzV8UFNUBIecomGq0penT02zZM+WUsKUuk/0KefhGwbT1NGUI2BOrvOzQGLZhq1YK1QAnPeBVPLn0Cj5Mwng3I47emn0EvvdZIQ5N2GVnVAyeqjC9r6kjqqequoHdoKxRDYUqdrUdTyqEJO+jLo5dAb0w5oul+Je7mhzuS7wloEqbkwynqatfY7upPPhRTIavmlvSKI2ne6b1Wxf02L2pjqSGjA//EanQSk2/oz9huqzE/OfGFw7UV+Ccu37VoR/fqfd15vy+JXo1vUZ/+v1efzmvc505TTWLlgRgwgwUu/l7eWhYgmy10IJHahE21V4Xwf5nPSrwSISvv+CGeUWcs7H0c7SJgv0r4FkFJZKKOuClxvVxNTZV4eplOjWqe5BEL1krfaO7/QozCy592qLnqeryzMqu3gqmp3Cg4VNDqrqM4eF7oLEgk4vTvwukiB60krwTUGnmVTr5GWr840an1TUV1gu2dlN8UN0G+ddH8dJ0jaKgu5EQr0AQXxnVBn9TrsLbqPB7Xcs2qdu44dVYyXh+xorF4rfSw6tS6d43/tnwsJpt5aIk/NTnxpiKCUhZWWfVwcbj0GqDV/YR6Z0NhYGaL2oiO/tIzb8hl2Ukf2VxHdUsfSX6u9sNLwPKebctSRKM8N9RaVn6rYRUSTbn0CiedLV31ZylUYvp738uWrzzil7TunpgtqIvB9eceX1Gu6evAHdEisSLVuj74mmn02GnW16+iq/4CwE8yuqakvDfnVLf1b4C14HTVpyzLt9kldunaCVU+qkJcrLbr7G/TmbrYJukrDv2x6uZyOhaajb1fNVEBTnF/fdTL7KZGbpEuZbdIEGLzc9jq7jx3ZfkNnoq6OoN59ONTnQh1NadfnQl915LvySsJu+z2W4va0PatepNnMDvuLw6fBu0vXmIQQVgegxA45jrbUl6AbffL/irrrOWnKkVqyXg1CRDSd1ieQ+L90e7YnyBmnTGOfdXZVhbvmY585BhRc+kxWsotp/9d/Tp+A3p1X88UqWtGUOQsd8SqL5AwioxRCWnBVuJztOYZq55fCSK7VrJeGupxVwosutFzNNtLpcHSjrq+t/zrJ/pfC1ylgR+1/YfedCEnJdDcELndQf431aOZwG/C5gPcqm+6Q7pPPIaM/QM7x7qKPD9Ns5ptPV/+ZEfZPLPxLevtJrYgOt5EZV/PLMNRJw/JtFfykXUV9Pn9lm10TpjNHHv9ad56zm3I6zw0h+UX78/u+GSaiiXSX+pAMkkdO91vo3cySV2fRuuDyneXZZ7Ldlx/qfhCq8O7VubV9di517zrU9OsYuR6COwvqGoSRqMJI1m2oK0c6TS3D3l/i3nMKXwmddq3AKH0o3DVMvfib9IamCtHuLWw3E90bgz8XQ9MdVu1aBYcOHOYyY/89SoSnlkX/DVsjl0V89xbUl+w6i8rKz73NL0GycezWTTKdVOHs2z/6jRRi26QW70I7c9T+p/PcDHZt8T43SPIr6nj4RQ3/oNZl2NcQ0b03pkAyDFVwLdoFcafAknuPqDwSVLOhA4d8Z/VMJFgwlwhbcoXOKG3nA5uEfPJLKkZ4CwOHu1Nm3m5H6lu4atIvRJ3xSq3Q6Jez2rVBI6msoKGWv3t97aarfoZeJ8UOnZIDhl8n3R9IBc/Aq6ZEch5z0rw1VN+gDr3cQffCGLW5blLoDquuWi7d7CdXSw/f7DesrPV7iP5Cmj9NcZ8v4l+uSfjvdV1LFtbvRfEL9Rl05RH1MZPLfyOIZ0ygdHVC6fdcX8lv4cXENiyXv4PKbcYRokl2DwKJ+vLpqoJ2OomW+385ms6W7aabPn0z1MT6apu+haG5RDjavkJnWHaY6boiIjvfo0rb7kgaTXurvO2OqXWUnNoLszxpz/ZR22Y+YA3y6r2lc2rfqzJMk4arA2tyfk43Z43GdIRNzLmWXy2XdFY2Qz31WycVFizPBunVV6UfuxYB0mTn3xByJZS5R8nIFUS9llvWedjmspHcwefCJ2v5mzadDqudjsu6ZnHE+Q6m3udtufvrMkpyJ1UzVn9evlZCfXfadQM0h7xGbdPlkuturYYK/u+rIBON6oMCnmto+j3XQ/JbZ/B27n/Fln/5z/hjlXwYR4gm2/rcOr7Hrb1t6gtI38Ldy39r697zMa9v1fWZcRSD30vax2cXYq7HnaklFOTCZW+Thi7I5BLdAWePpsDrlO/OLfKl4Aq4dby017vv1S1NTQHLrtfdM5mZj36999bxevklYfS87bdve6vprGaqc5v0Hutqz1cu1Q14L6NestBMmU7LA0rowHUqp3zbT+bZ/1bvvY8Le5t7w9YQVyFpPfaX0nNfOAL2SS/+ebXpfYehPhdB+8XPv5+Ef7v2XBbR81jq6HXreLk7as6pGQkQ9Lp+r3FuNR90y/fs62pee7Z0P6eOabmNfNet49Xn7T9/7Tv4f1gzQjQV7jiQEBEREd2pCe5DQkRERJsFAwkRERGNHQMJERERjR0DCREREY0dAwkRERGNHQMJERERjR0DCREREY0dAwmNTTgcxv79+/HEE0+YMUREtFnxxmh0zyUSCRw7dgzXrl1DvV5HNBrF448/jrfeegvnz583UxER0WYy+YHEf7t2122uPbfDNrdlR9ftzn23Jg+8dbp9u3UE3MZc35bbue26GefmvSW3fevylUwBM8XuW7NnVmbN/N23uPdMhEJmBbPOQvhvPT/ELb7Xj9xePYOV2cG3SB/FkSNHcPDgQbzxxhv46KOPzFhg+/btOH78OC5fvoxCoWDGEhHRZjEdTTZSEJufRC/B/Ay/KqzTaqj9U+muwCAhRI+zqog4P8xnyE/Tq9yARMb3w2ytFiJdvxTc75dypcAuItW0Ossw1M+1y+vs8OP/HRWP9m+mOPO2173rB+WmyIEDB/D000/jlVde8YQR8fHHH+P111/Hww8/jGeeecaMJSKizWLq+pDon4lXkjMR/W9flTJqrQg6v24vAaOB8mwZdf+vAjfKKCPl/fXebAaxWhX2O/qo5+RH5vqGigBZK4dwuf8PyunQkoqqYOWtndA/1x/xLaNQ4aUwPw+rWERR/pzQosa780vWMr8+LDUx1rwOVDK9TCM1OPq1/l+glWBk5quDoNGe3rxeL3PBwrwe7/2VY0c6nUY+n8etW7fMGODEiRPYtWuXGQLefPNNPR0REW0uUxZI7IJafq6+srCoCue0Kvz8P73uIj9vjxrKTmaQ4caSKuTzWKpH4akQicygttRw1ZzIewHlhRUz7CU/515fGq0xI5Iq6BqVwa0uMYRDdXTPvoKVRgjhmBl0CSXCWNI1KT1Ci19UzWRRpi+ppFDEHBbtWphGAp3KoyjS8SVTQ1NCIzFnz1eFFGd6eb9mytkHUbXkMr67pmjr1q26WUb6jLidPXsWzWbTDAE3btzQ02zb1vXbrUREtIFNRyCJSvCQs3H7J+PtAr2ChVlVIFpNpHxn71FVwOrp51SZ62rKkeaahinlpaYl6m+iyRdVYW5qTtrhZX2FYilvDcQ6aVWLZlkrKNca+lFf9bIJDTU0W3UVvOyt5NRA2eootdOThDg7DEkYCyVy7X2SCDm1UJ35+O3cuVP3D/E7efKkp4ZESCDZs2ePGSIios1g6vqQdDWRVBYwq87SazFz9q7YfUgsVOE+288ikwh1wop0FvU32+jCPIKUmlE2E0Ot2DuO1JotRDptQUNplGdh1WLIDewHIiHB3dTkSGIm0kKzZgbHqN1PR/8N7jsjV9QMW+sxMzODq1evmiEiItoMpq4PyfCkBkWaI0xzQjaOqCvYyJ9VtcOHW2WhjIYKN6mIq6kngJ4ukfP00UjOWwObSioLs52OuT2pZS83kMh5m6Ok/0mi4dRsDKddC5ScR8p1wc5wXM1a+vV2M5KEsWjK19dkAGmWkfuOhEK9OgnbHnzwQRw6dAgrK8FNZUREtDFNbSBxd6q0m3IWAwrqPHKSSQrz+GZAn49KuQZ0NaHkUVSjG+Xgy3w71LxN/wtnOeZQNMsQUmGiM95fISKdU2uxXP8rZvI52LPvzEdf0TPKZb+6Cco0d82pIBHYO7cf9YK4eX99qbTdyVaHqkYCOWfZ/B1hezh37py+tNft1KlTnqYcuSy4XC5jdXXVjCEios2AN0aje+a+++7Da6+9hnfffRdnzpzBZ599Zp6xa0ZmZ2fx6KOP6mnczxER0cbHQEL3lASPo0ePIplM6pqQ5eVl7Nu3D4cPH8aFCxdw+vRp3L7NQ5KIaLNhIKGxkP4kEkL27t2rQ8nFixe7LgkmIqLNg4GEiIiIxm4DX2VDRERE04KBhIiIiMaOgYSIiIjGjoGEiIiIxo6BhIiIiMaOgYSIiIjGjoGEiIiIxo6BhIiIiMaOgYSIiIjGjoGEiIiIxo6BhIiIiMaOgYSIiIjGjoGEiIiIxo6BhIiIiMZuy5NPPnnbPJ5IDz30EHbs2IEHHnjAjCEiIuptdXUVV65cwfXr180YmgYTH0gee+wx3H///WaIiIhosJs3b+JnP/uZGaJpMPGBRC0fbt+e6EUkIqIJs2XLFnz44YdmiKbB1AQSObiIiIgGccoMBpLpwk6tRERENHYMJERERDR2DCREREQ0dgwkRERENHYMJERERDR2DCREREQ0dhvkst/n8NKrEfz45dOoytBL38NvfdF+RvuP9/B98xwREW1svOx3Ok19IEm8+Cq+/qWtPUOHPP/Vxsv47jtmBBERbWgMJNNp6ptsqqdfxokT/4ifmmGv5/DVRy4xjBAREU24Dd2HJPHis8AHTCNERESTbgMHkgSefWQZP2YeISIimngbN5AknsUjn1xiR1YiIqIpsGEDSeLZ3UCDcYSIiGga8Nd+iYhoQ+FVNtNpQ3dqJSIiounAQEJERERjx0BCREREY8dAQkRERGPHQEJERERjN/GBZHV11TwiIiIaDsuO6TPxgeTjjz/GzZs3zRAREVF/UmZcuXLFDNG0mPj7kBAREdHGxz4kRERENHYMJERERDR2DCREREQ0dgwkRERENHYMJERERDR2DCREREQ0dgwkdE+Ew2Hs378fTzzxhBlDRETUwfuQ0F2VSCRw7NgxXLt2DfV6HdFoFI8//jjeeustnD9/3kxFRESbHQMJ3TVHjhzBwYMH8cYbb+Cjjz4yY4Ht27fj+PHjuHz5MgqFghlLRESb2eQHkuQ8CrkEQmYQ9RIyubx+mLWKSEf1Q6BVhTW7AMwXkEu0p1aTZ2Amt+n5xVCzZrFQMeOQhVVMA/5plaTML1bT825P7uJZBrRQlfnCu8xdyyDvV5hBsT3PpFrsHDqLbeYT9IZ3Q9ZCYaaI2XV8wwMHDuD555/Ht7/9bdy6dcuM9frGN76BS5cu4Sc/+YkZQ0REm9V09CGREJLJ6L8S0ijMJ3UhmlZDzviMKzBIANDjrCoiaUsV/x3JVEzKeyQy7rFKq4VI3DdOBYVUrBNuvCREFJFqWp1lyEiIUOPnJPA447pDjpcdRmI113ysGmK5AmQ1p1U6nUY+n/eEkRMnTmDXrl1mCHjzzTf1dERERFPXqTW/VNf/Jmci+t++KmXUWhHMtAt2CRgNlGfLqEfjnqCCRhllpLwhIJtRQaEK+x191HOJRimgViGGcK8ME0TmgyoW3fOpLGC21OgOTVK7Y83rIFQsqr/CvFoj/QTm1fjOasp08loJOxbm5wv29DJOnpPHRX/giXXmW3SFOBX87HFFOwiacYX5eVjOPH22bt2qm2Wkz4jb2bNn0Ww2zRBw48YNPc22bdvMGCIi2qymLJCoAjYVRWOlosrsRVQjaW/h6ZdMqWK2hrJT1stwYwl59d9SPQpPhUhkBrUldwiQ9wLKCytm2Csbj6K+FFT1kUdOwkTOVYD3IcGqVSt3NwfVmmipZeqaQzQGLNo1KaVGAv7M0i2qtsGiPT3U9pqTl6vX+wJPKKFW1szXqkaQdsJLfKldc1MOz7VDTCgRxpKMD6j+2blzp+4f4nfy5ElPDYmQQLJnzx4zREREm9V0BJKoBA85S7ebNuwysIKFWVUgWk2k3GfvSjRtzvSl8HU15UhzTcOECKlpifqbaPJFFXJMzUk7vKxBPmcK8Fz/wLQW9XK7b4lTW9RfXYUq+wW1Zku93GyP/JKn5qdVXWzPt1Ku6TD0gtpeofa2l74yIYRVHhKtarHntpEraoat9ZiZmcHVq1fNEBERbVZT14ekq4lEmjcyFmqxztm73YfEQhXuGoQsMolQJ6xIT1R/s40qqsu1CFJqRtlMDLVi7zgihXuk0xYUKJ9Ty1GCXdvQQ2WlgZBTyrvFwgg1VrprTu6xVtXdR2ZQfxibNMvIfUdCof5tVw8++CAOHTqElZXgWigiIto8pq4PyfCkBkWnATt0ZOOIuoKN/EnThIQPt8pCGQ0VblIRV1NPAD1dIgd31kjOW6N3RNW1MqajrkOaStIRVPsEoi6RGFJmFtmM66qkIYViqXbzkLwetTL+i4SlRGZNNTznzp3Tl/a6nTp1ytOUI5cFl8tlrK6umjFERLRZTW0gkctxnaYEuymn0+TQIf05VCYpzOObAX0+pGkCroLYlkdRjW44TRs9qXnr6g9nGYqYQ1Etg1xC3BmnrybuW60gwUlqeKR5x7wmF0ZZX7FjJhlIzaNs91uR18ebVbmQaCStRhhz5v3l6iVdE5VXgUv6kzjLNULz049+9CN9V9ZsNov7779fj3v//fdx/fp1XTPywgsv6Jukvf322/o5IiLa3HhjNLprJHgcPXoUyWRS14QsLy9j3759OHz4MC5cuIDTp0/j9m0efkRExEBC94D0J5EQsnfvXh1KLl682HVJMBERbW4MJERERDR2G7hTKxEREU0LBhIiIiIaOwYSIiIiGjsGEiIiIho7BhIiIiIau6m4yuahhx7Cjh078MADD5gxREREvckdoK9cuaJvxkjTYSoCyWOPPda+2ycREdEwbt68iZ/97GdmiCbdVAQStYy8oycREY1ky5Yt+PDDD80QTbqpCiRycBEREQ3ilBkMJNODnVqJiIho7BhIiIiIaOwYSIiIiGjsGEiIiIho7BhIiIiIaOw2UCB5Di+9+iISZgjq0Yuvfg/f+578vaSeJSIiokm1IQJJ4sVXVej4LXzRDGvPfRW7l7+PEydO4Pvv7cCzL3aiChEREU2WDRFIqqdfVsHjH/FTMyyee2oHli9V9ePq6Uu4svtZV+0JERERTRL2ISEiIqKxYyAhIiKisduwgWT5E2D3s6aR5rmnsGP5EuwGHCIiIpo0GzaQVE//AMu7v25fZfPsJ/jBacYRIiKiScUf1yMiog2HP643fdiHhIiIiMaOgYSIiIjGjoGEiIiIxo6BhIiIiMaOgYSIiIjGjoGEiIiIxm4qAsnq6qp5RERENByWHdNlKgLJxx9/jJs3b5ohIiKi/qTMuHLlihmiaTAVN0YjIiKijY19SIiIiGjsGEiIiIho7BhIiIiIaOwYSIiIiGjsGEiIiIho7BhIiIiIaOwYSIiIaOqFw2Hs378fTzzxhBlD02Yq7kPywAMPYPv27fj85z+P++4bnKFu3bqFGzdu6Jvi8IZqREQbVyKRwLFjx3Dt2jXU63VEo1E8/vjjeOutt3D+/HkzFU2DqQgku3bt0mFkVNevX8fly5fNkFfWKmCmOIuFihmBLKxiHEuZHPJmzL2l3r8wg+LsAtqLtE6S8wXkEiEzVEdJ1jE5j0IuAWcs6iVkcmrNZXxmBbPy2K3X9ErWKiId1Q+BVhWWWgd43lMmz8AzSz2/GGqWfx+koRbQO62i1yFW0/PubJ+keps5YLEzDz1duNxeNv0+MskiMNdj+dvTdC13j22luNfHs33N+leyFgozRcx2Vq7Nuz8685LtmGpaga8ZmSxz0H68U2q9irKz1fazmnGkyjnX/htE9lcGK7Nr+4yt6/YZQPZRZmW26zjU659q+o7D0Xk+M0rX52M9uI7rddtigcf16Ps1a1lArs/0fT4/bkeOHMHBgwfxxhtv4KOPPjJjoU9gjx8/rr//C4WCGUuTbiqabB588EHzaDRrfd2Gor6U5qQgz2SQ0X+uLwEplM34EtIozCfNEz0ETa++ONJqyBmfcX35yZesHmdVEUlbKm50JFMxVXirs5uMe6zSaiES941TX3ipmDsOOCpYaYQQVrOymekiM+qREQsj1Fixl6nH+mYzKhgtquUecltlMiUgXWy/vrIw236u1EhgTsbncyiH59Brk7a3jZ5XQU+Xz2XuSWG7dqrgSUleVMu97qXnYBOxfdR+dR/ja9dC1XKOgbsQRpT2cW2Gp8qAz484cOAAnn76abzyyiueMCLk50Zef/11PPzww3jmmWfMWJp0UxFIhmmmCbLW16mPsjpTL6Iof4V5U7gFjfORsydnGksVqqqAs1yfKDnrktH6i71gpitKQW3XDERDCeSKduHkeT/1Z79ORqszh3k1Xz3enlbOttrv6ScFsnnYT36pbh4Nx5k+ORPR//ZVKaPWimCmvSkkODRQni2jHo2rNXVplFFGyvtFlM0gVqsiaAllOaLtABNDGFVUGzGkzOuz8SjqS93f9p31zSKu3lGXc0NuK/Vq5FTIUmnKu+xaC7WyXQTkizWEnQXpKQ9nUZLzlllvOT7UY3W82PvfOSZc9HFgRsqZsD6O9IB+rf14pnOceY7ZgGNZ5mHN95jelrVySISiKot1wpjNfay6ltX1eXBPP9NvvZzlD3jtMNtHPmPO67o/Dv7PXfA4pwYrqkJn12fK9ZmWWtZ5tUy9308EvWcwqTXoPK+2qbMPArdjwD70cB3X7n1rpg3aTu5x7vX2TBs3IwME79cB66+P42zgNIM+P+l0Gvl8XjfRO06cOKFr1B1vvvmmno6mw1QEknsta9nNBvrsRZ8NyYdKmnPMuHLYPgt2kw+9fpmZps8pT3J+ThWwljk7krNwVcCpM+W6VPdnpPlB3s+1DL4ahlAibC+LVUMsV0R8SaazUI34CnKhzjTkrL0TdIKo90tF0VgZ9lyqM31lYVG9bzr4y8aRTKmoUIMpp+3hxpJe76V6FJ4KkcgMaksNV82JvBdQXlgxwz75JdSdGpFsHJGaCjRNlS30F1kSM5E6uvOIa33lNc2aPXqobWXokGUeqzV3Cof4kqsJqqKWOZayl60Xddykog10b/qo2maL9v4vubeHUdMrqecttU0hmMDX3rZKNAYs2seQrJc9Czm2ehzLgdN35HPqGGtJM5a/pkKOXzM/OSb1C9U2cX0eOtMPWC9NhZ74kj2N+lw0EkFnygHzUdvSXcPl/wh2f+7ksy5tGvb0GauJlCqIpcbLqrbsWqy+VRchJMJmOeUzmgoKcd3zt6nXqs9uz4K6LWg79tmHDvdxLZx9K99nKgTMOdtOfW80U/b7e2r6nJMC2aaJRvv9l9R2Dxa8X3uvf0cooT7gZhqrGkHamabP52fr1q26WUb6jLidPXsWzab6bBjSl1Cm2bZtmxlDk4yBJIA+6zbV6Jp8yZszQ/0Fko4i1Gkn0HQTRLVoFwQDVMrqiyKR63FGpegCvIqiM7PKAsr1Tg1Dy3kf9YFtqBBjT1dBudaQB12kqjuTKSMsX4DuN41KkJB1yukv6oHVxoHTV7Awa75s1HPuM2F9hinT+9qxZVs1TErw1nAY+aIKOabmxF3ABqqhqbaW5I9sPKJrJ/T2lf2jt2NTTWH0WF93EOu5rfrqFMhLcfc2UMsWvEs620b3owlqS6+rEGaWS0KX/ahDAhHCav2kYkcVGKoQ0CEsFgacgqhuzpCVdo1Qv2M5aPohtc+ipa+NDoh22Ex3nb0PWC9NhZ72wSjzcTfLOQLmo7eJCpQ99lv35y6LeNQVDNrLPqyW+sib5ZT37trX/ebvbrIJ2v+OgO04xPeR8JxguPat1BqG1HbQr1WfhUTI+W7pBOu0Wm77I6T+5/pe631cBO3X4bZvq7rYXjbZR632NL0/Pzt37gzsH3jy5ElPDYmQQLJnzx4zRJNsEweSoC85Q9qJM9ILUn2InC8CXXvhfIGov4Gldx8qYMyawmtQNe76sQtN6TvR/kJ29YsYqm2+3/R6nSzUYp2zWbufhDqrVoVE50Q4i4xTHW6+TFUi8W0DCVcRpNSMdDt4O5kFkWnlRCqLmYipaZCgJvOUwrlWbgeh4dc3YFv5+cOOIV/YQYWDX6cPibtT7yjsbRTPStW8CmyqEGio93VCWV/reSwLdcatOxLr+ZVMYSQfIzWsP0beoHr3mHC8FNfHVte+C/zc2TU+7W3hCs7r487nH7gd73Afdo4/+XNqZVNompAkNUTr4+5sX7miZthaj5mZGVy9etUM0STbtIGk1mwh6qpiTc6nEK27z8Tly00KU3UWKgVcqLsK280+++ruUxBpVznaBbGbfNGUXDUfbeZMr/1+Pav1p4FsR+m4aQqAbFxtZ3cHUbuaVsKHW2WhjIYKN6mIq6mnB73t1Xbu1KTIWaWaZ2qIwlmJdO2AAaR5Tp3tNcrdX65y9tlqV5XHEB6ii81aVVYaiKRSpmpenU1GUkipf/uu8hDH8qikH1F7nWX/2o9sEgKkv80QIa3D1Yynj/2gZrc+5ISiVO+5XzufO7XNWtGuY2/9jDr/znrr7yP7oc29HYfch73W3//dZ1PHasj5jul0IpdjLORqNpHje3jDrb9n/pmEeplzEtH78yPNMnLfkVCof68vubDh0KFDWFnp0eRLE2XTBhJpL7X7C9hn6vqSUnOW0e4kqqv2pbpSnTHrfhzO+OCzr0Vp/zTP6+p+Na7cfo84muasw91JLO10PJNCtN1/QRXii67361mtPwRXhzj7/Urr2qPf0xFOb69O9WuH2n76YpJ5fDOgk6kTKLxfW3kU1eigQr+L/oIOtZuBRH5JfZG2v2D7MDULWr9t1W7uUX96fzh9FOTM0vuadu1Lcsb15XoXyLKr72M7dNk1RSGYK4p6GuJYHpEOj04TQFzOiYWr06Vsr761XH5qDroWw7x22GNfgqLznmnpd+TdEt2fOzsst5dd/Tk1EHJM6m10Rxun9/yD5Iud/TKnCvPe23GIfeg+rn383312LbD6vLW/v+YQbpgakna/KnvauFmq4Qy3/q1GWNf+yPOjfH7OnTunL+11O3XqlKcpRy4LLpfLWF1dNWNokk3FfUjUMppHo/vwww/NI6JgA++JsEbd97qhwSTgrf1eJdRxt47rdSVX2fS438igz49cRfnaa6/h3XffxZkzZ/DZZ5+ZZ+yakdnZWTz66KN6GvdzNLnYqZU2vXyxiVRX58s7pL5oO7VfRPfeXTmu75UhPj9yue+f/Mmf6Ctp/uIv/kLXhsg9R/7gD/4Af/VXf4XPfe5zePXVVxlGpghrSIiIaKpJf5LDhw9j7969WF5exsWLF7suCabJx0BCREREYzcVTTZSJbcWa30dERER3VtTEUjkdwk+/fRTzy2C+5HpZHp5HREREU2+qWiyISIioo2NV9kQERHR2DGQEBER0dgxkBAREdHYMZAQERHR2DGQEBER0dgxkBAREdHYMZAQERHR2DGQEBER0dgxkBCNSH7Ia//+/XjiiSfMGCIiulO8UyvRkBKJBI4dO4Zr167pXxKNRqN4/PHH8dZbb+H8+fNmKiIiWgsGEqIhHDlyBAcPHsQbb7yBjz76yIwFtm/fjuPHj+Py5csoFApmLBERjWqqAknWKiIdNQNooWrNYqFiBgdKYr6QwcpsDnkzZv1kYRXTcBatVbUwqxas1/JmrQJmiv5l985DzQTW7AL0JMl5FHIJhPQTQL2UQS7fZ3pDvz9KyOQ6a5ycLyAXq3VN67w/9LzNKEXmEV9yjctaKKaartfL6+JYyuSgHvTcP535DLOtlJ7r78y33/7ssW30fMIoq2Ud5Rg4cOAAnn/+eXz729/u+QOP3/jGN3Dp0iX85Cc/MWOIiGgUU9KHRAqfIlJNC5lMxvyNEkburqxlF+TOskkBa5PC04y3aojlLFVU9iEFp5mHVYshZ8nUat3nYqg581F/7XDgmr7USGBuPmmeEFnEoy20Iil4RqOhliqGlGecko13CnCXWrOFyExn4mxcTRUKqzkYyRlEWk3U9ECP9VVBIKWCkSz3UNtK/en1L5rXVxYwa8ZnSg0k5ubVVqlgYbGJlN5GAYK2pZ7P6IE0nU4jn897wsiJEyewa9cuMwS8+eabejoiIlqb6Qgk2QwSjZKr8OrIWu5CXp0ZF6SwkofqTL5Y1H+F+RdUoMkhEYoirYadMkxqC5xpis7rdPixMO88JxPLmbWeruAr3EUSMxHzsJ9KGbWWeTyESrmmimgRQ9ipGukjv1RXOaEdE9T6xxGpLmJRJYWYL33U1LxjGXdBrtY5BVSr3Qsoy6Fm0N42M5G6mi6CuLMNU+o9a2VfbYviWt9kKoxaUWLAkNtKqSzMolSPItW9wdFy3k8FjDLirv0frLMt1fHh7Hx1fBTm52E5+79HsNm6datulpE+I25nz55Fs9k0Q8CNGzf0NNu2bTNjiIhoFFMRSOSsvL40ynmtKnj0ibh9hjy78F+wMGuh2qrrcbqGQRVIuunCTOOtYYiqGLBoj0caxTlgUaaTs3NPQS7kTL2KSLp3oaZJqIJTkzBYNpMAmjJ1Hjl535wEq+7C2eHfRtl4ROWEii9QiAjCqhivuWtO1LLFakU1NoAEC/UKHXWSKcQaS1hYaSBqEkksLHmkOyh21jcJySwrdoIYblsZErIc0qSjg0N8yRNMa81OOOqlsy29QokwlvT+V8dGV02SbefOnbp/iN/Jkyc9NSRCAsmePXvMEBERjWKDXvabx5I6u063az266QK83OlHkS9WgXYNQx1lU+hJk0V7uvySeiaAaVKwmilfLUpIBwldkEpA6uq34RNKIGfO2KXvR7vgzed0OCqHc+o5V42Qa3pPPw81RTxSg84JOlD4m2hUMCg32jUnTngJVsFKI6oLfakNaUjoke0QmVHbVpqFGiZsiB7r23AFsZ7bqr98zg6OmaW4qzZLzU6Fo0C9tqVLq1o0zTcVlGvB85Eraoat9ZiZmcHVq1fNEBERjWIqAom/H8MwdAG2CMypAqlfzcJ6kmYG3XdC93EQ7n4RQ/RdcPV7cHdEdeh1KgFpp3bBmb5URzTVKaST8ylE2wWyNFWFupptJFQ0Ehlkdf+Oct/+OFJTITUiUhtiVzTU0JSQk51BpL7kWq/h17d7W3WT0NjopB2bhCF3H5ZeBmzLYUmzjNx3JKS2YT8PPvggDh06hJWVFTOGiIhGMRWBpLJQVoVnrt33QyTnLXN2bZ+9C10Q2w9tcjZuuWs+OnQh6yrEe1XrT4W82ja1mGlysptI3B1EMyrF6PBhT23kUaxGkJoztR796BqRFFJOrYuuUZCWoCFeKyJDBAgffdVNpArd9cRNOt+2O9GqtR22U8odOHfunL601+3UqVOephy5LLhcLmN1ddWMISKiUUxJk00eOV01YJoD1N8civqsXppadJ8EPa5mmlTksk8zbS5mOlRKIRrpdGpVhbj0GxlUrT+YfQWQs1z6/RYHNM2MxLUu8idNIQFn/JWFRdRiKph8M6UKfyc4OOwmLH9fCx301LRdhX4XqREJqX86nVd13xQ1anCGs8OLXcHVb1u5mnvUn75c2TT5eDof+5q+YuEGhslEd+JHP/qRvitrNpvF/fffr8e9//77uH79uq4ZeeGFF/RN0t5++239HBERjY43RqO7LzkPK1VGbk2Brw+5+imzgtk7aJIZlgSPo0ePIplM6pqQ5eVl7Nu3D4cPH8aFCxdw+vRp3L7NjxIR0VoxkNA90XWDtTsmtS1y+dO9vR+N9CeRELJ3714dSi5evNh1STAREY2OgYSIiIjGboNe9ktERETThIGEiIiIxo6BhIiIiMaOgYSIiIjGjoGEiIiIxo6BhIiIiMaOgYSIiIjGjoGEiIiIxo6BhIiIiMaOgYSIiIjGjoGEiIiIxo6BhIiIiMaOgYSIiIjGjoGEiIiIxo6BhIiIiMZuy5NPPnnbPJ5YDz30EHbs2IEHHnjAjCEiIuptdXUVV65cwfXr180YmnRTEUgee+wx3H///WaIiIhosJs3b+JnP/uZGaJJNxWBRC0jbt+e+MUkIqIJsmXLFnz44YdmiCbdVAUSObiIiIgGccoMBpLpwU6tRERENHYMJERERDR2DCREREQ0dgwkRERENHYMJERERDR203+VTeJFvPr1L2GrGRQ//ccT+O47ZoCIiDYdXmUzfTbYZb/P4aVXI/jxy6dRNWOIiGjzYSCZPhuqySbx4lP45AcMI0RERNNmAwWS5/DV3Z/gEtMIERHR1Nk4geS5p4BLrB0hIiKaRhsmkEge+YAdWYmIiKbSBgkkz+GpHZ9g2QwRERHRdOGP6xER0YbDq2ymz4a6yoaIiIimEwMJERERjR0DCREREY0dAwkRERGNHQMJERERjR0DCREREY3dVASS1dVV84iIiGg4LDumy1QEko8//hg3b940Q0RERP1JmXHlyhUzRNNgKm6MRkRERBsb+5AQERHR2DGQEBER0dgxkBAREdHYMZAQERHR2DGQEBER0dgxkBAREdHYMZAQDSkcDmP//v144oknzBgiIlovU3EfkgceeADbt2/H5z//edx33+AMdevWLdy4cUPfFIc3VKM7lUgkcOzYMVy7dg31eh3RaBSPP/443nrrLZw/f95MRUREd2IqAsmuXbt0GBnV9evXcfnyZTPklbWKSEfNgFIvZZDLm4EhZa0CZoqzWKiYEY7kPKxUGbmuJ4Il5wvIJUJmqI5SJoe8mkchl4AzVi0gMrKAMj6zgln/wvaaXvGsa6sKa3YB8LxnwPrr+cVQs9zrl4VVTEMtYNe20usQq+l5e9c6qd4qB/utWqjK/GIWiu6Nr5n1NkPrTZYvszI78j4+cuQIDh48iDfeeAMfffSRGQsdkI8fP66Pr0KhYMYSEdFaTUWTzYMPPmgejab/66RwzCCTsf9GLajWjSr456QgN8uRcRfKEirM+BLSKMwnzRM9BE2ftdSjzviMKzBICNHjrCoiaUvFjY5kKiabCImMe6zSaiES941ToSMV64Qbj2wKWHTep4bY3DyS+ZxZnhLqEpD047sXRtbqwIEDePrpp/HKK694woiQnzN4/fXX8fDDD+OZZ54xY4mIaK2mIpAM00wTZOTXqcK7MD8Pq1hEUf4sp+CVmgEzrliAJxfE5lHomt5Nagic13oLfS0W7tRq9JFfqptHw3GmT85E9L99VcqotSKYaa+XBIwGyrNl1KNx7zI3yigj5d0G2QxitSoClzC/0KlhqaygYR4OJtvNwvx8obNtpdamax+4t2/RE9qkZsgeX0AmbEZqrv1ZUAHJjPVLp9PI5/O6CdBx4sQJXWPnePPNN/V0RER0Z6YikNwdISRynQLLKcdCiTCW9Bm7hWrEKXjzyOlx5iy/XWug5qErAJzp0/Bnkqw156ohaCLlnyCfQ6mRQM4fdDxUoZuKorEyXBOQe/rKwqJersAw5EimEEMNZWf2MtxYUmudx1I9Ck+FSGQGtaWGq+ZE3gsoL6yY4d6SasJIrexr0uknqpZrUW87qfEp6k2ptmOp8/5ZK6fCkGVv30wJjcScvR2lZiji1L4sohlxYp8EmLjZx+qvHMZcwIbfunWrbpaRPiNuZ8+eRbPZNEPQfZVkmm3btpkxRES0Fps4kLibbDr9JFrVomk6qKBc65zPSx8EHV6kn4YqlO0iTM1j0WkCkelbqrx2F25ZxKOu4ON5bUc+J8tQRlimcweWqAQJea1d6A5sVgqcvoKFWTV/CUPqOXcNQjRtlksKeldTjjTXNJbsN5Oalqi/iSZfVCHH1Jy0w0t/uo9JuIzZIfvV2Ooq6NjT15ot1MtmGfNLpjZGtm9nGvUEilUgHFPPxKOd6c2+0WR5Q1Gk9XZSf+koQvICn507dwb2Pzp58qSnhkRIINmzZ48ZIiKitdjEgWQE6mxbClPnLHy0xhPprOkEH/XX1enTYdfCSE1AO5O4+oQMVZD3m76ygNmMhVrM1CAodh8SC1Uk0OkqkkUmEeqEFel86m+20QV8BCk1o2wmhlqxfxyRppM5qekYW0cdn3a/FfMXsFxyRc2wtR4zMzO4evWqGSIiorVgIBmC9MNoNWv2QDaOzvUhIcRSTo2DFOTqTL7d7iFqaLaiuuCeXFKDUgKcTq2yfq5gI39W1Q4fbpWFMhoq3KQirqaeAFIzEl8aMlCNzG5S6iybvQ9kV0mNSqdmx9XpVvqxhNwBLJg0y8h9R0Kh/j18pOP0oUOHsLIyuMmKiIh6Yx8SU3Xf7woWXfgmcva0canzcLTQCM+ZecjlsP5LgO3Cvv3aoPfJWu3n5E+uiFnPioR2U5P+k6acxe7LlKV2RjJJYR7flKYO01zjqJRVCR9L+Zqa8iiq0Y12s0iwWNhV26L/+vWVGV1eLXhn+3b2QafvjIyfQ7hhmmxkXfVVRZ1l8nfrcZw7d05f2ut26tQpT1OOXBZcLpexurpqxhAR0VpMxX1I1DKaR6P78MMPzSOi0chVWq+99hreffddnDlzBp999pl5xq4ZmZ2dxaOPPqqncT9HRESj+fd//3cGEqJ+JHgcPXoUyWRS14QsLy9j3759OHz4MC5cuIDTp0/j9u2J/wgREU00BhKiIUl/Egkhe/fu1aHk4sWLXZcEExHR2jCQEBER0dhJIJmKTq1y86m1WOvriIiI6N6aikAivxvy6aefem7h3Y9MJ9PL64iIiGjyTUWTDREREW1cU9NkQ0RERBsbAwkRERGNHQMJERERjR0DCREREY0dAwkRERGNHQMJERERjR0DCREREY0dAwkRERGNHQMJERERjR0DCREREY3dJgkkScwXiihaWTO8vrLWes/bLG9R/RXm1RAREdHGti6/ZSMFcjpqBlxaVQuzCxV7IGuh6J+oXkIml9cPk/MF5BIh/bijhao1C2cWQYLf2/86KeBzSDQ677ee9DJg/eatt0WsBmt2AX1WnYiIaENY39+yaVVhZTLIuP6cMCIFbDEdUSHB/XwJdf2sWx0l1+utKpDIFTA/qIrA997dr6tgYVY9dxfCyPpLIhULoVUrM4wQEdGmcQ+abLLIJEKol/w1HXnkBgSEysIiqq0QEpnRmkOc18VSbOwgIiKaBvesD0lkZi3hoIKVhnl4R+w+GYV2lUlnWNfeSF8N/RdUG5OF1X7e7tOR1a+x1DM+yXkUXNN23k/4l8HQrzHvqx/nIC1XoUTOns9d6vdCREQ0Se5BIMljqW4XsKOXrUnMRIBWs2aGhxVDWBXqjZX+jR6yTHNYNE09ll0bM+fuRCphJI2o9HVxmoTKYaS7+rookRQKc8CiM53dbtQdQPqpLGBWL4e0Qln2fKaimYmIiOjOrF8gCSWQc9UOuGsb8rkMSiqURNPe8YNkLaktqKPcr1drgKylQkSriuKgslxNs9iedwULZUlOMTgtPcn5lJ6P5Q4F+Zxely6hBsruTqgqXCyqZBFKZLprUoiIiMjjLnZq9fYZkVDSroXIqWASeDlrFGlXqElHZJ45DKwj8IWh+JJ6ryGuUOnqOFprQkUIhGMyYHcuRWOlaz61Zss8cmk14a/HqZRran4RrKm1ioiIaBO5Z31IbOZqF7nCRkJEVyjxXmUzTKjQXGHIrokJ6N+xRkM3FwUEFyIiIhrOPQ4kjjxyVhUtV/PIesnnpBYmivQkdAaNhRFCAwO6shAREW16Ywokd1MFC4sq7ETTa+hE62Zf4ROKpbqalmLSY9YvGu+qlcnGo66mHDM/uz2oQ4cWIiKize0eBJIsrK6mmSTm5xII1ct978K6ZpUFSP/UO226yRelFieBOVcvXLlMOOiutLr/izsBZS09Xb3caXbKy+VG0ZSrU6/aNsEzIyIi2lTWL5B0XWWj/pwCuuu5HGI1665e0prPyZ1gVUi4k9+CkctwzeW7zrLLZcKWXJfrVy/BaqY662juTOtZRX2FjunUq6eLY0marszTREREm9W6/JbNZsPfmiEiIlo/6/tbNptG78uBiYiIaG0YSPqRW7n7esY6N2sr8Q6qRERE64ZNNn2ZW8ebIU3uecKmGiIionUjTTYMJERERDRW7ENCREREE4GBhIiIiMaOgYSIiIjGjoGEiIiIxo6BhIiGFg6HsX//fjzxxBNmDBHR+piKq2weeOABbN++HZ///Odx332DM9StW7dw48YNXLlyBTdv3jRjiWitEokEjh07hmvXrqFeryMajeLxxx/HW2+9hfPnz5upiIjWZmou+921a5cOI6O6fv06Ll++bIa8slbR9SN5LVStWf1Df1nLAnI5TM9tz+THC2dQNPdG0be1Tzi/H1xHKaPWRW7wlkt0flW4Xhr8O0L6NWGU5fVm1NDktZkVzI5087gk5gty07nOvmjLWijqXyocYrmHoeZXmCliVr+J/b7hsu93h9aDLHeq2f++NZ5lGZZ7W5URzsghO8LCj/ieR44cwcGDB/HGG2/go48+MmOhTxKOHz+uP2OFQsGMJSIa3dRc9vvggw+aR6Pp/zr5Ms8gk1F/Vg2x3J39MvBEUEFgTn5jR9ZJ/7nChBTmepyFaiQN3w1ou8kPC64ljKxVNmP/4GLGF0ak8E1BBSu17OueGEQFC7N3IYyIfA6Zu3ETvZ7bav0dOHAATz/9NF555RVPGBEff/wxXn/9dTz88MN45plnzFgiorWZihoStYzm0eg+/PBD88graxUwU3S+0OWMM4OV2RzQriFx36XVfdbunJ26x7vHmVoJedhmzx+1CBJ6Ivf8vHeDrZfswlEvX7OhprefccZ3c9WQ9Doj99VYSC2K/Gqx9wzZvYzwnHn3W5ZOTVML9br6Z2kWuZr9fmWk288F10CZZV8E5to1ON7t567JalV/iFr4iyjnzPq51qv3Mvr2139X0/xv7RnqbRVzLZOnhql9V97e+889fdc+UstnpcrIqQkDlw+m5ke03yv4eGiTdfZsqyXE9eLnvcverk0KODZ1DUkTDbWj9fv0qXn61re+hb/5m7/RzTSOEydO6KYap/bxc5/7HL75zW/iT//0T/UwEdGoeGM0hzrjTKCJmhm05ZFzahqkBiVjVynIb9nYZ6fynFPIzgGLzrRNpAKrH6KIqRCgpympgknPTwqLtJz+m9dWEUk7NTUhJMJLnfGpeTX1AOqMvNRIIFcsYL7nxPLjgKpsLbvDiMNZRicsOXosiyrY0hFVkMr4zCKaEVMYimga8SWzXrK+c32WX2pjSnVVJst29Ya5fM5CtSUFaUYFqH8zY4MEL2PX/vq/cmp5zHv5g5taH/0rznrajN6Wc+0NGbD/fDVSPcp0I2D5pAbFsyz9jgejz7aqLMzar1N/JaT0MZCcn3Otf2f6UCKMJT1Oaszsaf22bt2qm2XcYUScPXsWzWbTDEH315Jptm3bZsYQEY1uEwcSVUDkiigW1Z+UAf7CSZEzTv28nJFGZlRxkUU8WkfZU1rLONe82tP6uV6XX1JDSjKlCrkqik4poQqbcj2CGf1idRbuPFEpo9awHw6Sz0khU0ZYlscdjFRA0MtXlPDkDxwO/7o5gpclG4+iXna2WwXlWks/0tRZd7uAlvUNhdW63k1Byxi0v3rzro9a7GIVCDtLHbD/5H1UlM0NbP8SQ+zPvsfDMKR2xT4O0+qYlEWvlFXMTuS6muha1aIJJ7Lfgg+unTt3BvbBOnnypO7X5SaBZM+ePWaIiGh0mziQSLW7fTbpP9PU5Gw5XDbPl+wCqCf7DN45O70r/QYc0ixjCp1Cz2oQu3anBFdfEdOHRJ10m9oZunN2/5PMUlzvj6FyyV0jtSspNM0xbVVNONR9gTJYissxM1o/KbmiZthaj5mZGVy9etUMERGNjk02PSRnImg1TSNONm7a9PNYqkeR8gSBGpot/7ghmTPsdj5IziMVbWClX5qRan4JPepvtCszbFKt7wkqd6DWbCEaby88UjF3k028Xfgl51OI1pdM6IvCeYkebz8cXiSGlNnU2YzryqFAQfurt/xSHVFX05jMH84x0I9peokMX5URbC3HQ1sM4ZAzrW9fKFJzVhqptkWterOp7zsSCvXfytJ5/NChQ1hZWTFjiIhGx0DSQ2WhjEYiZ9dGxKUOxJbPlTrjdV8NOUt2j+tXc+GnXrso/QTs1xVzMdSsgNqaYblqT+QvraJHUL8GWQek+/UzGU5lYVFfsWO/3xzCDXeTDRA3y6H7ZZgFkWYQZ33nVPHbv+bJT22vcqPdPBZvVuF6x0Dd+0tGLtnjCr5+Le0+OPb8Zfv1DX3SwdRMK81+wzYNeXiW5U6OhzyK1QjSenk6+6Ld7Kj+0ij3aKrr7dy5c/rSXrdTp055mnLksuByuYzV1VUzhohodJv2Khtab9Jk0K9/Ck0juRHha6+9hnfffRdnzpzBZ599Zp6xa0ZmZ2fx6KOP6mnczxERjWJqbozGQDKhpEbGuWxV6bpElTYECR5Hjx5FMpnUNSHLy8vYt28fDh8+jAsXLuD06dO4fXviv0aIJpoUyJsdAwkRDUX6k0gI2bt3rw4lFy9e7LokmIjWhoFEBRJ1ZsNTGyIiIhoj4P8HEfVrAuVNBi8AAAAASUVORK5CYII=;" vertex="1" parent="1">
          <mxGeometry x="40" y="600" width="548" height="961" as="geometry" />
        </mxCell>
        <mxCell id="3lJlArqiqxlQ9nQsiEaR-12" value="今回の設定では、mallocでの確保は、PSRAMで確保するように設定している（赤丸部）" style="text;html=1;align=center;verticalAlign=middle;whiteSpace=wrap;rounded=0;" vertex="1" parent="1">
          <mxGeometry x="40" y="555" width="490" height="30" as="geometry" />
        </mxCell>
        <mxCell id="3lJlArqiqxlQ9nQsiEaR-13" value="" style="ellipse;whiteSpace=wrap;html=1;fillColor=none;strokeColor=#FF0000;" vertex="1" parent="1">
          <mxGeometry x="50" y="830" width="390" height="60" as="geometry" />
        </mxCell>
      </root>
    </mxGraphModel>
  </diagram>
</mxfile>
